%TF.GenerationSoftware,KiCad,Pcbnew,10.0.3-10.0.3~ubuntu26.04.1*%
%TF.CreationDate,2026-06-24T22:48:48+05:30*%
%TF.ProjectId,Genemutation_B4,47656e65-6d75-4746-9174-696f6e5f4234,rev?*%
%TF.SameCoordinates,Original*%
%TF.FileFunction,Plated,1,2,PTH,Drill*%
%TF.FilePolarity,Positive*%
%FSLAX46Y46*%
G04 Gerber Fmt 4.6, Leading zero omitted, Abs format (unit mm)*
G04 Created by KiCad (PCBNEW 10.0.3-10.0.3~ubuntu26.04.1) date 2026-06-24 22:48:48*
%MOMM*%
%LPD*%
G01*
G04 APERTURE LIST*
%TA.AperFunction,ViaDrill*%
%ADD10C,0.300000*%
%TD*%
%TA.AperFunction,ComponentDrill*%
%ADD11C,0.800000*%
%TD*%
%TA.AperFunction,ComponentDrill*%
%ADD12C,0.900000*%
%TD*%
%TA.AperFunction,ComponentDrill*%
%ADD13C,1.000000*%
%TD*%
%TA.AperFunction,ComponentDrill*%
%ADD14C,1.020000*%
%TD*%
%TA.AperFunction,ComponentDrill*%
%ADD15C,1.100000*%
%TD*%
%TA.AperFunction,ComponentDrill*%
%ADD16C,1.200000*%
%TD*%
%TA.AperFunction,ComponentDrill*%
%ADD17C,1.320000*%
%TD*%
G04 APERTURE END LIST*
D10*
X80390000Y-126790000D03*
X83100000Y-110910000D03*
X83270000Y-117690000D03*
X83380000Y-115130000D03*
X91960000Y-146030000D03*
X94440000Y-113520000D03*
X94850000Y-126360000D03*
X100480000Y-121700000D03*
X110540000Y-114900000D03*
X112110000Y-126430000D03*
X114800000Y-114080000D03*
X118980000Y-113940000D03*
X144710000Y-113370000D03*
X144810000Y-120060000D03*
X144850000Y-108360000D03*
D11*
%TO.C,C4*%
X87794888Y-147300000D03*
X90294888Y-147300000D03*
%TO.C,R1*%
X106755000Y-140200000D03*
%TO.C,C1*%
X107050000Y-143950000D03*
%TO.C,C2*%
X107050000Y-147600000D03*
%TO.C,C1*%
X112050000Y-143950000D03*
%TO.C,C2*%
X112050000Y-147600000D03*
%TO.C,R1*%
X114375000Y-140200000D03*
D12*
%TO.C,D1*%
X110760000Y-134600000D03*
X113300000Y-134600000D03*
D13*
%TO.C,U2*%
X92770000Y-105790000D03*
X92770000Y-108330000D03*
X92770000Y-110870000D03*
X92770000Y-113410000D03*
X92770000Y-115950000D03*
X92770000Y-118490000D03*
X92770000Y-121030000D03*
X92770000Y-123570000D03*
X97850000Y-107060000D03*
X97850000Y-109600000D03*
X97850000Y-112140000D03*
X97850000Y-114680000D03*
X97850000Y-117220000D03*
X97850000Y-119760000D03*
X97850000Y-122300000D03*
%TO.C,C6*%
X131470000Y-109422323D03*
X131470000Y-116922323D03*
D14*
%TO.C,J3*%
X81510000Y-115130000D03*
X81510000Y-117670000D03*
X81510000Y-120210000D03*
%TO.C,J2*%
X81520000Y-105870000D03*
X81520000Y-108410000D03*
X81520000Y-110950000D03*
%TO.C,J1*%
X81550000Y-124290000D03*
X81550000Y-126830000D03*
X81550000Y-129370000D03*
D15*
%TO.C,U1*%
X97200000Y-147900000D03*
X99740000Y-147900000D03*
X102280000Y-147900000D03*
%TO.C,D9*%
X108150000Y-114455354D03*
X108150000Y-124615354D03*
%TO.C,D5*%
X108220000Y-99090000D03*
X108220000Y-109250000D03*
%TO.C,D8*%
X112400000Y-114455354D03*
X112400000Y-124615354D03*
%TO.C,D4*%
X112470000Y-99090000D03*
X112470000Y-109250000D03*
%TO.C,D7*%
X116650000Y-114455354D03*
X116650000Y-124615354D03*
%TO.C,D3*%
X116720000Y-99090000D03*
X116720000Y-109250000D03*
%TO.C,D6*%
X120900000Y-114455354D03*
X120900000Y-124615354D03*
%TO.C,D2*%
X120910000Y-99180000D03*
X120910000Y-109340000D03*
D16*
%TO.C,C5*%
X87787246Y-135700000D03*
X95287246Y-135700000D03*
D17*
%TO.C,J4*%
X147060000Y-108515000D03*
X147060000Y-113515000D03*
%TO.C,J5*%
X147120000Y-120245000D03*
X147120000Y-125245000D03*
M02*
