%TF.GenerationSoftware,KiCad,Pcbnew,10.0.3-10.0.3~ubuntu26.04.1*%
%TF.CreationDate,2026-06-24T22:48:44+05:30*%
%TF.ProjectId,Genemutation_B4,47656e65-6d75-4746-9174-696f6e5f4234,rev?*%
%TF.SameCoordinates,Original*%
%TF.FileFunction,Copper,L1,Top*%
%TF.FilePolarity,Positive*%
%FSLAX46Y46*%
G04 Gerber Fmt 4.6, Leading zero omitted, Abs format (unit mm)*
G04 Created by KiCad (PCBNEW 10.0.3-10.0.3~ubuntu26.04.1) date 2026-06-24 22:48:44*
%MOMM*%
%LPD*%
G01*
G04 APERTURE LIST*
G04 Aperture macros list*
%AMRoundRect*
0 Rectangle with rounded corners*
0 $1 Rounding radius*
0 $2 $3 $4 $5 $6 $7 $8 $9 X,Y pos of 4 corners*
0 Add a 4 corners polygon primitive as box body*
4,1,4,$2,$3,$4,$5,$6,$7,$8,$9,$2,$3,0*
0 Add four circle primitives for the rounded corners*
1,1,$1+$1,$2,$3*
1,1,$1+$1,$4,$5*
1,1,$1+$1,$6,$7*
1,1,$1+$1,$8,$9*
0 Add four rect primitives between the rounded corners*
20,1,$1+$1,$2,$3,$4,$5,0*
20,1,$1+$1,$4,$5,$6,$7,0*
20,1,$1+$1,$6,$7,$8,$9,0*
20,1,$1+$1,$8,$9,$2,$3,0*%
G04 Aperture macros list end*
%TA.AperFunction,ComponentPad*%
%ADD10RoundRect,0.249999X-0.850001X0.850001X-0.850001X-0.850001X0.850001X-0.850001X0.850001X0.850001X0*%
%TD*%
%TA.AperFunction,ComponentPad*%
%ADD11C,2.200000*%
%TD*%
%TA.AperFunction,ComponentPad*%
%ADD12R,1.800000X1.800000*%
%TD*%
%TA.AperFunction,ComponentPad*%
%ADD13C,1.800000*%
%TD*%
%TA.AperFunction,ComponentPad*%
%ADD14R,3.960000X1.980000*%
%TD*%
%TA.AperFunction,ComponentPad*%
%ADD15O,3.960000X1.980000*%
%TD*%
%TA.AperFunction,ComponentPad*%
%ADD16RoundRect,0.250001X-0.949999X-0.949999X0.949999X-0.949999X0.949999X0.949999X-0.949999X0.949999X0*%
%TD*%
%TA.AperFunction,ComponentPad*%
%ADD17C,2.400000*%
%TD*%
%TA.AperFunction,ComponentPad*%
%ADD18R,1.905000X2.000000*%
%TD*%
%TA.AperFunction,ComponentPad*%
%ADD19O,1.905000X2.000000*%
%TD*%
%TA.AperFunction,ComponentPad*%
%ADD20R,2.030000X1.730000*%
%TD*%
%TA.AperFunction,ComponentPad*%
%ADD21O,2.030000X1.730000*%
%TD*%
%TA.AperFunction,ComponentPad*%
%ADD22RoundRect,0.250000X-0.750000X0.750000X-0.750000X-0.750000X0.750000X-0.750000X0.750000X0.750000X0*%
%TD*%
%TA.AperFunction,ComponentPad*%
%ADD23C,2.000000*%
%TD*%
%TA.AperFunction,ComponentPad*%
%ADD24RoundRect,0.250000X-0.550000X-0.550000X0.550000X-0.550000X0.550000X0.550000X-0.550000X0.550000X0*%
%TD*%
%TA.AperFunction,ComponentPad*%
%ADD25C,1.600000*%
%TD*%
%TA.AperFunction,ViaPad*%
%ADD26C,0.600000*%
%TD*%
%TA.AperFunction,Conductor*%
%ADD27C,0.200000*%
%TD*%
G04 APERTURE END LIST*
D10*
%TO.P,D9,1,K*%
%TO.N,Net-(D5-A)*%
X108150000Y-114455354D03*
D11*
%TO.P,D9,2,A*%
%TO.N,GND*%
X108150000Y-124615354D03*
%TD*%
D12*
%TO.P,U2,1,SENSE_A*%
%TO.N,GND*%
X92770000Y-105790000D03*
D13*
%TO.P,U2,2,OUT1*%
%TO.N,Net-(D2-A)*%
X97850000Y-107060000D03*
%TO.P,U2,3,OUT2*%
%TO.N,Net-(D3-A)*%
X92770000Y-108330000D03*
%TO.P,U2,4,Vs*%
%TO.N,+12V*%
X97850000Y-109600000D03*
%TO.P,U2,5,IN1*%
%TO.N,Net-(J2-Pin_1)*%
X92770000Y-110870000D03*
%TO.P,U2,6,EnA*%
%TO.N,Net-(J2-Pin_3)*%
X97850000Y-112140000D03*
%TO.P,U2,7,IN2*%
%TO.N,Net-(J2-Pin_2)*%
X92770000Y-113410000D03*
%TO.P,U2,8,GND*%
%TO.N,GND*%
X97850000Y-114680000D03*
%TO.P,U2,9,Vss*%
%TO.N,+5V*%
X92770000Y-115950000D03*
%TO.P,U2,10,IN3*%
%TO.N,Net-(J3-Pin_1)*%
X97850000Y-117220000D03*
%TO.P,U2,11,EnB*%
%TO.N,Net-(J3-Pin_3)*%
X92770000Y-118490000D03*
%TO.P,U2,12,IN4*%
%TO.N,Net-(J3-Pin_2)*%
X97850000Y-119760000D03*
%TO.P,U2,13,OUT3*%
%TO.N,Net-(D4-A)*%
X92770000Y-121030000D03*
%TO.P,U2,14,OUT4*%
%TO.N,Net-(D5-A)*%
X97850000Y-122300000D03*
%TO.P,U2,15,SENSE_B*%
%TO.N,unconnected-(U2-SENSE_B-Pad15)*%
X92770000Y-123570000D03*
%TD*%
D10*
%TO.P,D5,1,K*%
%TO.N,+12V*%
X108220000Y-99090000D03*
D11*
%TO.P,D5,2,A*%
%TO.N,Net-(D5-A)*%
X108220000Y-109250000D03*
%TD*%
D10*
%TO.P,D3,1,K*%
%TO.N,+12V*%
X116720000Y-99090000D03*
D11*
%TO.P,D3,2,A*%
%TO.N,Net-(D3-A)*%
X116720000Y-109250000D03*
%TD*%
D14*
%TO.P,J5,1,Pin_1*%
%TO.N,Net-(D4-A)*%
X147120000Y-120245000D03*
D15*
%TO.P,J5,2,Pin_2*%
%TO.N,Net-(D5-A)*%
X147120000Y-125245000D03*
%TD*%
D14*
%TO.P,J4,1,Pin_1*%
%TO.N,Net-(D2-A)*%
X147060000Y-108515000D03*
D15*
%TO.P,J4,2,Pin_2*%
%TO.N,Net-(D3-A)*%
X147060000Y-113515000D03*
%TD*%
D16*
%TO.P,C5,1*%
%TO.N,+12V*%
X87787246Y-135700000D03*
D17*
%TO.P,C5,2*%
%TO.N,GND*%
X95287246Y-135700000D03*
%TD*%
D10*
%TO.P,D4,1,K*%
%TO.N,+12V*%
X112470000Y-99090000D03*
D11*
%TO.P,D4,2,A*%
%TO.N,Net-(D4-A)*%
X112470000Y-109250000D03*
%TD*%
D10*
%TO.P,D7,1,K*%
%TO.N,Net-(D3-A)*%
X116650000Y-114455354D03*
D11*
%TO.P,D7,2,A*%
%TO.N,GND*%
X116650000Y-124615354D03*
%TD*%
D18*
%TO.P,U1,1,IN*%
%TO.N,+12V*%
X97200000Y-147900000D03*
D19*
%TO.P,U1,2,GND*%
%TO.N,GND*%
X99740000Y-147900000D03*
%TO.P,U1,3,OUT*%
%TO.N,+5V*%
X102280000Y-147900000D03*
%TD*%
D20*
%TO.P,J1,1,Pin_1*%
%TO.N,+5V*%
X81550000Y-124290000D03*
D21*
%TO.P,J1,2,Pin_2*%
%TO.N,GND*%
X81550000Y-126830000D03*
%TO.P,J1,3,Pin_3*%
%TO.N,+12V*%
X81550000Y-129370000D03*
%TD*%
D20*
%TO.P,J3,1,Pin_1*%
%TO.N,Net-(J3-Pin_1)*%
X81510000Y-115130000D03*
D21*
%TO.P,J3,2,Pin_2*%
%TO.N,Net-(J3-Pin_2)*%
X81510000Y-117670000D03*
%TO.P,J3,3,Pin_3*%
%TO.N,Net-(J3-Pin_3)*%
X81510000Y-120210000D03*
%TD*%
D20*
%TO.P,J2,1,Pin_1*%
%TO.N,Net-(J2-Pin_1)*%
X81520000Y-105870000D03*
D21*
%TO.P,J2,2,Pin_2*%
%TO.N,Net-(J2-Pin_2)*%
X81520000Y-108410000D03*
%TO.P,J2,3,Pin_3*%
%TO.N,Net-(J2-Pin_3)*%
X81520000Y-110950000D03*
%TD*%
D22*
%TO.P,C6,1*%
%TO.N,+12V*%
X131470000Y-109422323D03*
D23*
%TO.P,C6,2*%
%TO.N,GND*%
X131470000Y-116922323D03*
%TD*%
D10*
%TO.P,D2,1,K*%
%TO.N,+12V*%
X120910000Y-99180000D03*
D11*
%TO.P,D2,2,A*%
%TO.N,Net-(D2-A)*%
X120910000Y-109340000D03*
%TD*%
D24*
%TO.P,C4,1*%
%TO.N,+12V*%
X87794888Y-147300000D03*
D25*
%TO.P,C4,2*%
%TO.N,GND*%
X90294888Y-147300000D03*
%TD*%
D10*
%TO.P,D6,1,K*%
%TO.N,Net-(D2-A)*%
X120900000Y-114455354D03*
D11*
%TO.P,D6,2,A*%
%TO.N,GND*%
X120900000Y-124615354D03*
%TD*%
D12*
%TO.P,D1,1,K*%
%TO.N,GND*%
X110760000Y-134600000D03*
D13*
%TO.P,D1,2,A*%
%TO.N,Net-(D1-A)*%
X113300000Y-134600000D03*
%TD*%
D25*
%TO.P,C1,1*%
%TO.N,+5V*%
X107050000Y-143950000D03*
%TO.P,C1,2*%
%TO.N,GND*%
X112050000Y-143950000D03*
%TD*%
D10*
%TO.P,D8,1,K*%
%TO.N,Net-(D4-A)*%
X112400000Y-114455354D03*
D11*
%TO.P,D8,2,A*%
%TO.N,GND*%
X112400000Y-124615354D03*
%TD*%
D25*
%TO.P,R1,1*%
%TO.N,+5V*%
X106755000Y-140200000D03*
%TO.P,R1,2*%
%TO.N,Net-(D1-A)*%
X114375000Y-140200000D03*
%TD*%
%TO.P,C2,1*%
%TO.N,+5V*%
X107050000Y-147600000D03*
%TO.P,C2,2*%
%TO.N,GND*%
X112050000Y-147600000D03*
%TD*%
D26*
%TO.N,GND*%
X100480000Y-121700000D03*
X80390000Y-126790000D03*
X91960000Y-146030000D03*
X112110000Y-126430000D03*
X94440000Y-113520000D03*
%TO.N,+5V*%
X94850000Y-126360000D03*
%TO.N,Net-(D2-A)*%
X144850000Y-108360000D03*
X118980000Y-113940000D03*
%TO.N,Net-(D3-A)*%
X114800000Y-114080000D03*
X144710000Y-113370000D03*
%TO.N,Net-(D4-A)*%
X144810000Y-120060000D03*
X110540000Y-114900000D03*
%TO.N,Net-(J2-Pin_3)*%
X83100000Y-110910000D03*
%TO.N,Net-(J3-Pin_2)*%
X83270000Y-117690000D03*
%TO.N,Net-(J3-Pin_1)*%
X83380000Y-115130000D03*
%TD*%
%TO.N,GND*%
D27*
X99390000Y-114660000D02*
X100480000Y-115750000D01*
X94340000Y-147300000D02*
X99740000Y-141900000D01*
X90294888Y-147300000D02*
X91564888Y-146030000D01*
X123776969Y-124615354D02*
X120900000Y-124615354D01*
X90294888Y-147300000D02*
X94340000Y-147300000D01*
X96387246Y-134600000D02*
X95287246Y-135700000D01*
X99740000Y-140152754D02*
X95287246Y-135700000D01*
X108875000Y-150775000D02*
X112050000Y-147600000D01*
X91564888Y-146030000D02*
X91960000Y-146030000D01*
X112050000Y-147600000D02*
X112050000Y-143950000D01*
X112400000Y-124615354D02*
X112400000Y-126140000D01*
X99740000Y-148565000D02*
X101950000Y-150775000D01*
X99740000Y-147900000D02*
X99740000Y-148565000D01*
X92770000Y-105790000D02*
X94440000Y-107460000D01*
X94440000Y-107460000D02*
X94440000Y-113520000D01*
X99740000Y-141900000D02*
X99740000Y-140152754D01*
X112400000Y-124615354D02*
X116650000Y-124615354D01*
X110760000Y-134600000D02*
X96387246Y-134600000D01*
X81550000Y-126830000D02*
X80430000Y-126830000D01*
X116650000Y-124615354D02*
X120900000Y-124615354D01*
X131470000Y-116922323D02*
X123776969Y-124615354D01*
X100480000Y-115750000D02*
X100480000Y-121700000D01*
X97870000Y-114660000D02*
X99390000Y-114660000D01*
X101950000Y-150775000D02*
X108875000Y-150775000D01*
X80430000Y-126830000D02*
X80390000Y-126790000D01*
X112400000Y-126140000D02*
X112110000Y-126430000D01*
X108150000Y-124615354D02*
X112400000Y-124615354D01*
X97850000Y-114680000D02*
X97870000Y-114660000D01*
X99740000Y-147900000D02*
X99740000Y-141900000D01*
%TO.N,+5V*%
X92770000Y-115950000D02*
X94580000Y-117760000D01*
X93910000Y-126360000D02*
X94850000Y-126360000D01*
X93120000Y-125570000D02*
X93910000Y-126360000D01*
X102280000Y-147900000D02*
X106750000Y-147900000D01*
X94580000Y-124110000D02*
X93120000Y-125570000D01*
X91830000Y-126860000D02*
X93120000Y-125570000D01*
X94580000Y-117760000D02*
X94580000Y-124110000D01*
X84100000Y-126840000D02*
X91810000Y-126840000D01*
X81550000Y-124290000D02*
X84100000Y-126840000D01*
X106750000Y-147900000D02*
X107050000Y-147600000D01*
X91810000Y-126840000D02*
X91830000Y-126860000D01*
X106755000Y-140200000D02*
X106755000Y-143655000D01*
X107050000Y-143950000D02*
X107050000Y-147600000D01*
X106755000Y-143655000D02*
X107050000Y-143950000D01*
%TO.N,+12V*%
X81550000Y-129462754D02*
X87787246Y-135700000D01*
X100400000Y-109600000D02*
X105370000Y-104630000D01*
X120910000Y-99180000D02*
X116810000Y-99180000D01*
X97850000Y-109600000D02*
X100400000Y-109600000D01*
X95570000Y-111880000D02*
X97850000Y-109600000D01*
X81550000Y-129370000D02*
X81550000Y-129462754D01*
X87787246Y-135812754D02*
X84650000Y-138950000D01*
X108220000Y-99090000D02*
X112470000Y-99090000D01*
X84650000Y-138950000D02*
X84650000Y-144155112D01*
X87794888Y-147300000D02*
X87794888Y-149594888D01*
X116810000Y-99180000D02*
X116720000Y-99090000D01*
X112470000Y-99090000D02*
X116720000Y-99090000D01*
X131470000Y-109422323D02*
X131152323Y-109422323D01*
X87794888Y-149594888D02*
X88600000Y-150400000D01*
X105370000Y-104630000D02*
X105370000Y-101940000D01*
X84650000Y-144155112D02*
X87794888Y-147300000D01*
X131152323Y-109422323D02*
X120910000Y-99180000D01*
X105370000Y-101940000D02*
X108220000Y-99090000D01*
X87787246Y-135700000D02*
X87787246Y-135812754D01*
X88600000Y-150400000D02*
X94700000Y-150400000D01*
X95570000Y-127917246D02*
X95570000Y-111880000D01*
X87787246Y-135700000D02*
X95570000Y-127917246D01*
X94700000Y-150400000D02*
X97200000Y-147900000D01*
%TO.N,Net-(D1-A)*%
X114375000Y-135675000D02*
X114375000Y-140200000D01*
X113300000Y-134600000D02*
X114375000Y-135675000D01*
%TO.N,Net-(D2-A)*%
X147060000Y-108515000D02*
X146905000Y-108360000D01*
X145020000Y-108530000D02*
X144850000Y-108360000D01*
X120900000Y-114455354D02*
X119495354Y-114455354D01*
X146905000Y-108360000D02*
X144850000Y-108360000D01*
X119495354Y-114455354D02*
X118980000Y-113940000D01*
X120910000Y-114445354D02*
X120900000Y-114455354D01*
X120910000Y-109340000D02*
X120910000Y-114445354D01*
%TO.N,Net-(D3-A)*%
X144870000Y-113530000D02*
X144710000Y-113370000D01*
X144855000Y-113515000D02*
X144710000Y-113370000D01*
X116720000Y-114385354D02*
X116650000Y-114455354D01*
X147060000Y-113515000D02*
X144855000Y-113515000D01*
X116650000Y-114455354D02*
X115175354Y-114455354D01*
X115175354Y-114455354D02*
X114800000Y-114080000D01*
X116720000Y-109250000D02*
X116720000Y-114385354D01*
%TO.N,Net-(D4-A)*%
X147120000Y-120245000D02*
X144995000Y-120245000D01*
X110984646Y-114455354D02*
X110540000Y-114900000D01*
X112470000Y-114385354D02*
X112400000Y-114455354D01*
X112400000Y-114455354D02*
X110984646Y-114455354D01*
X112470000Y-109250000D02*
X112470000Y-114385354D01*
X144995000Y-120245000D02*
X144810000Y-120060000D01*
%TO.N,Net-(D5-A)*%
X104630000Y-129080000D02*
X97850000Y-122300000D01*
X147120000Y-127240000D02*
X145280000Y-129080000D01*
X145280000Y-129080000D02*
X104630000Y-129080000D01*
X108150000Y-115580000D02*
X101430000Y-122300000D01*
X101430000Y-122300000D02*
X97850000Y-122300000D01*
X108220000Y-114385354D02*
X108150000Y-114455354D01*
X108220000Y-109250000D02*
X108220000Y-114385354D01*
X108150000Y-114455354D02*
X108150000Y-115580000D01*
X147120000Y-125245000D02*
X147120000Y-127240000D01*
%TO.N,Net-(J2-Pin_2)*%
X92770000Y-113410000D02*
X87770000Y-108410000D01*
X87770000Y-108410000D02*
X81520000Y-108410000D01*
%TO.N,Net-(J2-Pin_1)*%
X92770000Y-110870000D02*
X87770000Y-105870000D01*
X87770000Y-105870000D02*
X81520000Y-105870000D01*
%TO.N,Net-(J2-Pin_3)*%
X81520000Y-110950000D02*
X83060000Y-110950000D01*
X83060000Y-110950000D02*
X83100000Y-110910000D01*
%TO.N,Net-(J3-Pin_2)*%
X81510000Y-117670000D02*
X83250000Y-117670000D01*
X83250000Y-117670000D02*
X83270000Y-117690000D01*
%TO.N,Net-(J3-Pin_3)*%
X81510000Y-120210000D02*
X91050000Y-120210000D01*
X91265000Y-119995000D02*
X92770000Y-118490000D01*
X91050000Y-120210000D02*
X91265000Y-119995000D01*
%TO.N,Net-(J3-Pin_1)*%
X83380000Y-115130000D02*
X81510000Y-115130000D01*
%TD*%
%TA.AperFunction,NonConductor*%
G36*
X153722539Y-91990185D02*
G01*
X153768294Y-92042989D01*
X153779500Y-92094500D01*
X153779500Y-153245500D01*
X153759815Y-153312539D01*
X153707011Y-153358294D01*
X153655500Y-153369500D01*
X77854500Y-153369500D01*
X77787461Y-153349815D01*
X77741706Y-153297011D01*
X77730500Y-153245500D01*
X77730500Y-126711153D01*
X79589500Y-126711153D01*
X79589500Y-126868846D01*
X79620261Y-127023489D01*
X79620264Y-127023501D01*
X79680602Y-127169172D01*
X79680609Y-127169185D01*
X79768210Y-127300288D01*
X79768213Y-127300292D01*
X79879707Y-127411786D01*
X79879711Y-127411789D01*
X80010814Y-127499390D01*
X80010827Y-127499397D01*
X80156501Y-127559736D01*
X80156503Y-127559737D01*
X80209236Y-127570226D01*
X80271145Y-127602610D01*
X80285361Y-127618958D01*
X80332753Y-127684188D01*
X80358455Y-127719563D01*
X80510437Y-127871545D01*
X80656181Y-127977434D01*
X80686802Y-127999682D01*
X80729467Y-128055012D01*
X80735446Y-128124626D01*
X80702840Y-128186421D01*
X80686802Y-128200318D01*
X80684322Y-128202120D01*
X80510437Y-128328455D01*
X80510435Y-128328457D01*
X80510434Y-128328457D01*
X80358457Y-128480434D01*
X80358457Y-128480435D01*
X80358455Y-128480437D01*
X80304198Y-128555114D01*
X80232120Y-128654321D01*
X80134541Y-128845829D01*
X80134540Y-128845832D01*
X80068124Y-129050240D01*
X80068124Y-129050243D01*
X80068124Y-129050245D01*
X80034500Y-129262533D01*
X80034500Y-129477467D01*
X80047655Y-129560520D01*
X80068124Y-129689756D01*
X80068124Y-129689759D01*
X80134540Y-129894167D01*
X80134541Y-129894170D01*
X80212503Y-130047178D01*
X80232120Y-130085678D01*
X80358455Y-130259563D01*
X80510437Y-130411545D01*
X80684322Y-130537880D01*
X80778251Y-130585739D01*
X80875829Y-130635458D01*
X80875832Y-130635459D01*
X81066494Y-130697408D01*
X81080245Y-130701876D01*
X81292533Y-130735500D01*
X81292534Y-130735500D01*
X81807466Y-130735500D01*
X81807467Y-130735500D01*
X81888404Y-130722680D01*
X81957696Y-130731634D01*
X81995483Y-130757472D01*
X86050427Y-134812416D01*
X86083912Y-134873739D01*
X86086746Y-134900097D01*
X86086746Y-136612656D01*
X86067061Y-136679695D01*
X86050427Y-136700337D01*
X84169481Y-138581282D01*
X84169479Y-138581285D01*
X84119361Y-138668094D01*
X84119359Y-138668096D01*
X84090425Y-138718209D01*
X84090424Y-138718210D01*
X84090423Y-138718215D01*
X84049499Y-138870943D01*
X84049499Y-138870945D01*
X84049499Y-139039046D01*
X84049500Y-139039059D01*
X84049500Y-144068442D01*
X84049499Y-144068460D01*
X84049499Y-144234166D01*
X84049498Y-144234166D01*
X84090423Y-144386897D01*
X84119358Y-144437012D01*
X84119359Y-144437016D01*
X84119360Y-144437016D01*
X84169479Y-144523826D01*
X84169481Y-144523829D01*
X84288349Y-144642697D01*
X84288355Y-144642702D01*
X86458069Y-146812416D01*
X86491554Y-146873739D01*
X86494388Y-146900097D01*
X86494388Y-147900001D01*
X86494389Y-147900019D01*
X86504888Y-148002796D01*
X86504889Y-148002799D01*
X86534235Y-148091358D01*
X86560074Y-148169334D01*
X86652176Y-148318656D01*
X86776232Y-148442712D01*
X86925554Y-148534814D01*
X87092091Y-148589999D01*
X87092097Y-148589999D01*
X87096336Y-148590907D01*
X87157772Y-148624185D01*
X87191464Y-148685394D01*
X87194388Y-148712162D01*
X87194388Y-149508218D01*
X87194387Y-149508236D01*
X87194387Y-149673942D01*
X87194386Y-149673942D01*
X87235311Y-149826675D01*
X87243250Y-149840424D01*
X87243249Y-149840424D01*
X87243251Y-149840426D01*
X87314363Y-149963597D01*
X87314369Y-149963605D01*
X87433237Y-150082473D01*
X87433243Y-150082478D01*
X88115139Y-150764374D01*
X88115149Y-150764385D01*
X88119479Y-150768715D01*
X88119480Y-150768716D01*
X88231284Y-150880520D01*
X88318095Y-150930639D01*
X88318097Y-150930641D01*
X88368213Y-150959576D01*
X88368215Y-150959577D01*
X88520942Y-151000500D01*
X88520943Y-151000500D01*
X94613331Y-151000500D01*
X94613347Y-151000501D01*
X94620943Y-151000501D01*
X94779054Y-151000501D01*
X94779057Y-151000501D01*
X94931785Y-150959577D01*
X94981904Y-150930639D01*
X95068716Y-150880520D01*
X95180520Y-150768716D01*
X95180520Y-150768714D01*
X95190728Y-150758507D01*
X95190730Y-150758504D01*
X96512416Y-149436818D01*
X96573739Y-149403333D01*
X96600097Y-149400499D01*
X98200371Y-149400499D01*
X98200372Y-149400499D01*
X98259983Y-149394091D01*
X98394831Y-149343796D01*
X98510046Y-149257546D01*
X98596296Y-149142331D01*
X98606690Y-149114460D01*
X98648560Y-149058527D01*
X98714023Y-149034108D01*
X98782297Y-149048958D01*
X98795746Y-149057465D01*
X98978462Y-149190217D01*
X99078222Y-149241047D01*
X99182244Y-149294049D01*
X99399751Y-149364721D01*
X99399752Y-149364721D01*
X99399755Y-149364722D01*
X99625646Y-149400500D01*
X99674903Y-149400500D01*
X99741942Y-149420185D01*
X99762584Y-149436819D01*
X101465139Y-151139374D01*
X101465149Y-151139385D01*
X101469479Y-151143715D01*
X101469480Y-151143716D01*
X101581284Y-151255520D01*
X101668095Y-151305639D01*
X101668097Y-151305641D01*
X101706151Y-151327611D01*
X101718215Y-151334577D01*
X101870943Y-151375501D01*
X101870946Y-151375501D01*
X102036653Y-151375501D01*
X102036669Y-151375500D01*
X108788331Y-151375500D01*
X108788347Y-151375501D01*
X108795943Y-151375501D01*
X108954054Y-151375501D01*
X108954057Y-151375501D01*
X109106785Y-151334577D01*
X109156904Y-151305639D01*
X109243716Y-151255520D01*
X109355520Y-151143716D01*
X109355520Y-151143714D01*
X109365728Y-151133507D01*
X109365730Y-151133504D01*
X111605158Y-148894075D01*
X111666479Y-148860592D01*
X111731151Y-148863825D01*
X111745466Y-148868477D01*
X111947648Y-148900500D01*
X111947649Y-148900500D01*
X112152351Y-148900500D01*
X112152352Y-148900500D01*
X112354534Y-148868477D01*
X112549219Y-148805220D01*
X112731610Y-148712287D01*
X112852873Y-148624185D01*
X112897213Y-148591971D01*
X112897215Y-148591968D01*
X112897219Y-148591966D01*
X113041966Y-148447219D01*
X113041968Y-148447215D01*
X113041971Y-148447213D01*
X113135371Y-148318657D01*
X113162287Y-148281610D01*
X113255220Y-148099219D01*
X113318477Y-147904534D01*
X113350500Y-147702352D01*
X113350500Y-147497648D01*
X113318477Y-147295466D01*
X113255220Y-147100781D01*
X113255218Y-147100778D01*
X113255218Y-147100776D01*
X113198997Y-146990438D01*
X113162287Y-146918390D01*
X113153235Y-146905931D01*
X113041971Y-146752786D01*
X112897213Y-146608028D01*
X112731610Y-146487712D01*
X112718200Y-146480879D01*
X112667406Y-146432903D01*
X112650500Y-146370397D01*
X112650500Y-145179601D01*
X112670185Y-145112562D01*
X112718206Y-145069116D01*
X112731610Y-145062287D01*
X112897219Y-144941966D01*
X113041966Y-144797219D01*
X113041968Y-144797215D01*
X113041971Y-144797213D01*
X113154228Y-144642702D01*
X113162287Y-144631610D01*
X113255220Y-144449219D01*
X113318477Y-144254534D01*
X113350500Y-144052352D01*
X113350500Y-143847648D01*
X113318477Y-143645466D01*
X113316782Y-143640250D01*
X113255218Y-143450776D01*
X113203734Y-143349735D01*
X113162287Y-143268390D01*
X113154556Y-143257749D01*
X113041971Y-143102786D01*
X112897213Y-142958028D01*
X112731613Y-142837715D01*
X112731612Y-142837714D01*
X112731610Y-142837713D01*
X112674653Y-142808691D01*
X112549223Y-142744781D01*
X112354534Y-142681522D01*
X112179995Y-142653878D01*
X112152352Y-142649500D01*
X111947648Y-142649500D01*
X111923329Y-142653351D01*
X111745465Y-142681522D01*
X111550776Y-142744781D01*
X111368386Y-142837715D01*
X111202786Y-142958028D01*
X111058028Y-143102786D01*
X110937715Y-143268386D01*
X110844781Y-143450776D01*
X110781522Y-143645465D01*
X110749500Y-143847648D01*
X110749500Y-144052352D01*
X110752051Y-144068460D01*
X110781522Y-144254534D01*
X110844781Y-144449223D01*
X110937715Y-144631613D01*
X111058028Y-144797213D01*
X111058034Y-144797219D01*
X111202781Y-144941966D01*
X111368390Y-145062287D01*
X111381793Y-145069116D01*
X111432589Y-145117088D01*
X111449500Y-145179601D01*
X111449500Y-146370397D01*
X111429815Y-146437436D01*
X111381800Y-146480879D01*
X111368389Y-146487712D01*
X111202786Y-146608028D01*
X111058028Y-146752786D01*
X110937715Y-146918386D01*
X110844781Y-147100776D01*
X110781522Y-147295465D01*
X110749500Y-147497648D01*
X110749500Y-147702351D01*
X110781522Y-147904534D01*
X110786173Y-147918848D01*
X110788165Y-147988690D01*
X110755921Y-148044842D01*
X108662584Y-150138181D01*
X108601261Y-150171666D01*
X108574903Y-150174500D01*
X102250097Y-150174500D01*
X102183058Y-150154815D01*
X102162416Y-150138181D01*
X101452230Y-149427995D01*
X101418745Y-149366672D01*
X101423729Y-149296980D01*
X101465601Y-149241047D01*
X101531065Y-149216630D01*
X101596204Y-149229828D01*
X101618222Y-149241047D01*
X101722244Y-149294049D01*
X101939751Y-149364721D01*
X101939752Y-149364721D01*
X101939755Y-149364722D01*
X102165646Y-149400500D01*
X102165647Y-149400500D01*
X102394353Y-149400500D01*
X102394354Y-149400500D01*
X102620245Y-149364722D01*
X102620248Y-149364721D01*
X102620249Y-149364721D01*
X102837755Y-149294049D01*
X102837755Y-149294048D01*
X102837758Y-149294048D01*
X103041538Y-149190217D01*
X103226566Y-149055786D01*
X103388286Y-148894066D01*
X103522717Y-148709038D01*
X103594475Y-148568205D01*
X103642450Y-148517409D01*
X103704960Y-148500500D01*
X106059953Y-148500500D01*
X106126992Y-148520185D01*
X106147634Y-148536819D01*
X106202786Y-148591971D01*
X106357749Y-148704556D01*
X106368390Y-148712287D01*
X106484607Y-148771503D01*
X106550776Y-148805218D01*
X106550778Y-148805218D01*
X106550781Y-148805220D01*
X106655137Y-148839127D01*
X106745465Y-148868477D01*
X106846557Y-148884488D01*
X106947648Y-148900500D01*
X106947649Y-148900500D01*
X107152351Y-148900500D01*
X107152352Y-148900500D01*
X107354534Y-148868477D01*
X107549219Y-148805220D01*
X107731610Y-148712287D01*
X107852873Y-148624185D01*
X107897213Y-148591971D01*
X107897215Y-148591968D01*
X107897219Y-148591966D01*
X108041966Y-148447219D01*
X108041968Y-148447215D01*
X108041971Y-148447213D01*
X108135371Y-148318657D01*
X108162287Y-148281610D01*
X108255220Y-148099219D01*
X108318477Y-147904534D01*
X108350500Y-147702352D01*
X108350500Y-147497648D01*
X108318477Y-147295466D01*
X108255220Y-147100781D01*
X108255218Y-147100778D01*
X108255218Y-147100776D01*
X108198997Y-146990438D01*
X108162287Y-146918390D01*
X108153235Y-146905931D01*
X108041971Y-146752786D01*
X107897213Y-146608028D01*
X107731610Y-146487712D01*
X107718200Y-146480879D01*
X107667406Y-146432903D01*
X107650500Y-146370397D01*
X107650500Y-145179601D01*
X107670185Y-145112562D01*
X107718206Y-145069116D01*
X107731610Y-145062287D01*
X107897219Y-144941966D01*
X108041966Y-144797219D01*
X108041968Y-144797215D01*
X108041971Y-144797213D01*
X108154228Y-144642702D01*
X108162287Y-144631610D01*
X108255220Y-144449219D01*
X108318477Y-144254534D01*
X108350500Y-144052352D01*
X108350500Y-143847648D01*
X108318477Y-143645466D01*
X108316782Y-143640250D01*
X108255218Y-143450776D01*
X108203734Y-143349735D01*
X108162287Y-143268390D01*
X108154556Y-143257749D01*
X108041971Y-143102786D01*
X107897213Y-142958028D01*
X107731613Y-142837715D01*
X107731612Y-142837714D01*
X107731610Y-142837713D01*
X107674653Y-142808691D01*
X107549223Y-142744781D01*
X107479645Y-142722173D01*
X107441180Y-142709675D01*
X107383506Y-142670238D01*
X107356308Y-142605879D01*
X107355500Y-142591745D01*
X107355500Y-141429601D01*
X107375185Y-141362562D01*
X107423206Y-141319116D01*
X107436610Y-141312287D01*
X107602219Y-141191966D01*
X107746966Y-141047219D01*
X107746968Y-141047215D01*
X107746971Y-141047213D01*
X107799732Y-140974590D01*
X107867287Y-140881610D01*
X107960220Y-140699219D01*
X108023477Y-140504534D01*
X108055500Y-140302352D01*
X108055500Y-140097648D01*
X108023477Y-139895466D01*
X107960220Y-139700781D01*
X107960218Y-139700778D01*
X107960218Y-139700776D01*
X107926503Y-139634607D01*
X107867287Y-139518390D01*
X107859556Y-139507749D01*
X107746971Y-139352786D01*
X107602213Y-139208028D01*
X107436613Y-139087715D01*
X107436612Y-139087714D01*
X107436610Y-139087713D01*
X107379653Y-139058691D01*
X107254223Y-138994781D01*
X107059534Y-138931522D01*
X106884995Y-138903878D01*
X106857352Y-138899500D01*
X106652648Y-138899500D01*
X106628329Y-138903351D01*
X106450465Y-138931522D01*
X106255776Y-138994781D01*
X106073386Y-139087715D01*
X105907786Y-139208028D01*
X105763028Y-139352786D01*
X105642715Y-139518386D01*
X105549781Y-139700776D01*
X105486522Y-139895465D01*
X105454500Y-140097648D01*
X105454500Y-140302351D01*
X105486522Y-140504534D01*
X105549781Y-140699223D01*
X105642715Y-140881613D01*
X105763028Y-141047213D01*
X105763034Y-141047219D01*
X105907781Y-141191966D01*
X106073390Y-141312287D01*
X106086793Y-141319116D01*
X106137589Y-141367088D01*
X106154500Y-141429601D01*
X106154500Y-142954953D01*
X106134815Y-143021992D01*
X106118181Y-143042634D01*
X106058032Y-143102782D01*
X106058028Y-143102786D01*
X105937715Y-143268386D01*
X105844781Y-143450776D01*
X105781522Y-143645465D01*
X105749500Y-143847648D01*
X105749500Y-144052352D01*
X105752051Y-144068460D01*
X105781522Y-144254534D01*
X105844781Y-144449223D01*
X105937715Y-144631613D01*
X106058028Y-144797213D01*
X106058034Y-144797219D01*
X106202781Y-144941966D01*
X106368390Y-145062287D01*
X106381793Y-145069116D01*
X106432589Y-145117088D01*
X106449500Y-145179601D01*
X106449500Y-146370397D01*
X106429815Y-146437436D01*
X106381800Y-146480879D01*
X106368389Y-146487712D01*
X106202786Y-146608028D01*
X106058028Y-146752786D01*
X105937715Y-146918386D01*
X105844781Y-147100778D01*
X105808052Y-147213818D01*
X105768614Y-147271494D01*
X105704256Y-147298692D01*
X105690121Y-147299500D01*
X103704960Y-147299500D01*
X103637921Y-147279815D01*
X103594475Y-147231795D01*
X103585315Y-147213818D01*
X103522717Y-147090962D01*
X103388286Y-146905934D01*
X103226566Y-146744214D01*
X103041538Y-146609783D01*
X102938505Y-146557285D01*
X102837755Y-146505950D01*
X102620248Y-146435278D01*
X102434812Y-146405908D01*
X102394354Y-146399500D01*
X102165646Y-146399500D01*
X102125188Y-146405908D01*
X101939753Y-146435278D01*
X101939750Y-146435278D01*
X101722244Y-146505950D01*
X101518461Y-146609783D01*
X101444966Y-146663181D01*
X101333434Y-146744214D01*
X101333432Y-146744216D01*
X101333431Y-146744216D01*
X101171715Y-146905932D01*
X101110318Y-146990438D01*
X101054987Y-147033103D01*
X100985374Y-147039082D01*
X100923579Y-147006476D01*
X100909682Y-146990438D01*
X100858818Y-146920430D01*
X100848286Y-146905934D01*
X100686566Y-146744214D01*
X100501538Y-146609783D01*
X100498094Y-146608028D01*
X100408205Y-146562227D01*
X100357409Y-146514252D01*
X100340500Y-146451742D01*
X100340500Y-140073699D01*
X100340500Y-140073697D01*
X100299577Y-139920970D01*
X100299577Y-139920969D01*
X100247797Y-139831284D01*
X100220520Y-139784038D01*
X100108716Y-139672234D01*
X100108715Y-139672233D01*
X100104385Y-139667903D01*
X100104374Y-139667893D01*
X96896074Y-136459593D01*
X96862589Y-136398270D01*
X96867573Y-136328578D01*
X96869179Y-136324495D01*
X96900956Y-136247781D01*
X96958650Y-136032463D01*
X96987746Y-135811457D01*
X96987746Y-135588543D01*
X96958650Y-135367537D01*
X96955717Y-135356590D01*
X96957380Y-135286743D01*
X96996543Y-135228881D01*
X97060771Y-135201377D01*
X97075492Y-135200500D01*
X109235501Y-135200500D01*
X109302540Y-135220185D01*
X109348295Y-135272989D01*
X109359501Y-135324500D01*
X109359501Y-135547876D01*
X109365908Y-135607483D01*
X109416202Y-135742328D01*
X109416206Y-135742335D01*
X109502452Y-135857544D01*
X109502455Y-135857547D01*
X109617664Y-135943793D01*
X109617671Y-135943797D01*
X109752517Y-135994091D01*
X109752516Y-135994091D01*
X109759444Y-135994835D01*
X109812127Y-136000500D01*
X111707872Y-136000499D01*
X111767483Y-135994091D01*
X111902331Y-135943796D01*
X112017546Y-135857546D01*
X112103796Y-135742331D01*
X112131429Y-135668243D01*
X112133601Y-135662420D01*
X112175471Y-135606486D01*
X112240936Y-135582068D01*
X112309209Y-135596919D01*
X112337464Y-135618071D01*
X112387636Y-135668243D01*
X112387641Y-135668247D01*
X112489603Y-135742326D01*
X112565978Y-135797815D01*
X112694375Y-135863237D01*
X112762393Y-135897895D01*
X112762396Y-135897896D01*
X112867221Y-135931955D01*
X112972049Y-135966015D01*
X113189778Y-136000500D01*
X113189779Y-136000500D01*
X113410221Y-136000500D01*
X113410222Y-136000500D01*
X113627951Y-135966015D01*
X113627950Y-135966015D01*
X113631102Y-135965516D01*
X113700396Y-135974471D01*
X113753848Y-136019467D01*
X113774487Y-136086218D01*
X113774500Y-136087989D01*
X113774500Y-138970397D01*
X113754815Y-139037436D01*
X113706800Y-139080879D01*
X113693389Y-139087712D01*
X113527786Y-139208028D01*
X113383028Y-139352786D01*
X113262715Y-139518386D01*
X113169781Y-139700776D01*
X113106522Y-139895465D01*
X113074500Y-140097648D01*
X113074500Y-140302351D01*
X113106522Y-140504534D01*
X113169781Y-140699223D01*
X113262715Y-140881613D01*
X113383028Y-141047213D01*
X113527786Y-141191971D01*
X113682749Y-141304556D01*
X113693390Y-141312287D01*
X113774499Y-141353614D01*
X113875776Y-141405218D01*
X113875778Y-141405218D01*
X113875781Y-141405220D01*
X113950818Y-141429601D01*
X114070465Y-141468477D01*
X114171557Y-141484488D01*
X114272648Y-141500500D01*
X114272649Y-141500500D01*
X114477351Y-141500500D01*
X114477352Y-141500500D01*
X114679534Y-141468477D01*
X114874219Y-141405220D01*
X115056610Y-141312287D01*
X115149590Y-141244732D01*
X115222213Y-141191971D01*
X115222215Y-141191968D01*
X115222219Y-141191966D01*
X115366966Y-141047219D01*
X115366968Y-141047215D01*
X115366971Y-141047213D01*
X115419732Y-140974590D01*
X115487287Y-140881610D01*
X115580220Y-140699219D01*
X115643477Y-140504534D01*
X115675500Y-140302352D01*
X115675500Y-140097648D01*
X115643477Y-139895466D01*
X115580220Y-139700781D01*
X115580218Y-139700778D01*
X115580218Y-139700776D01*
X115546503Y-139634607D01*
X115487287Y-139518390D01*
X115479556Y-139507749D01*
X115366971Y-139352786D01*
X115222213Y-139208028D01*
X115056610Y-139087712D01*
X115043200Y-139080879D01*
X114992406Y-139032903D01*
X114975500Y-138970397D01*
X114975500Y-135764060D01*
X114975501Y-135764047D01*
X114975501Y-135595944D01*
X114975501Y-135595943D01*
X114934577Y-135443216D01*
X114934573Y-135443209D01*
X114855524Y-135306290D01*
X114855518Y-135306282D01*
X114769421Y-135220185D01*
X114673437Y-135124202D01*
X114639953Y-135062880D01*
X114643187Y-134998205D01*
X114666015Y-134927951D01*
X114700500Y-134710222D01*
X114700500Y-134489778D01*
X114666015Y-134272049D01*
X114633376Y-134171595D01*
X114597896Y-134062395D01*
X114597895Y-134062393D01*
X114536825Y-133942539D01*
X114497815Y-133865978D01*
X114439501Y-133785715D01*
X114368247Y-133687641D01*
X114368243Y-133687636D01*
X114212363Y-133531756D01*
X114212358Y-133531752D01*
X114034025Y-133402187D01*
X114034024Y-133402186D01*
X114034022Y-133402185D01*
X113916791Y-133342452D01*
X113837606Y-133302104D01*
X113837603Y-133302103D01*
X113627952Y-133233985D01*
X113519086Y-133216742D01*
X113410222Y-133199500D01*
X113189778Y-133199500D01*
X113117201Y-133210995D01*
X112972047Y-133233985D01*
X112762396Y-133302103D01*
X112762393Y-133302104D01*
X112565974Y-133402187D01*
X112387641Y-133531752D01*
X112387636Y-133531756D01*
X112337463Y-133581929D01*
X112276140Y-133615413D01*
X112206448Y-133610428D01*
X112150515Y-133568557D01*
X112133601Y-133537580D01*
X112103797Y-133457671D01*
X112103793Y-133457664D01*
X112017547Y-133342455D01*
X112017544Y-133342452D01*
X111902335Y-133256206D01*
X111902328Y-133256202D01*
X111767482Y-133205908D01*
X111767483Y-133205908D01*
X111707883Y-133199501D01*
X111707881Y-133199500D01*
X111707873Y-133199500D01*
X111707864Y-133199500D01*
X109812129Y-133199500D01*
X109812123Y-133199501D01*
X109752516Y-133205908D01*
X109617671Y-133256202D01*
X109617664Y-133256206D01*
X109502455Y-133342452D01*
X109502452Y-133342455D01*
X109416206Y-133457664D01*
X109416202Y-133457671D01*
X109365908Y-133592517D01*
X109359501Y-133652116D01*
X109359500Y-133652135D01*
X109359500Y-133875500D01*
X109339815Y-133942539D01*
X109287011Y-133988294D01*
X109235500Y-133999500D01*
X96473915Y-133999500D01*
X96473899Y-133999499D01*
X96466303Y-133999499D01*
X96308189Y-133999499D01*
X96228256Y-134020917D01*
X96155462Y-134040422D01*
X96117405Y-134062395D01*
X96028303Y-134113837D01*
X95960403Y-134130308D01*
X95918852Y-134121010D01*
X95835042Y-134086295D01*
X95835030Y-134086291D01*
X95835027Y-134086290D01*
X95619709Y-134028596D01*
X95619703Y-134028595D01*
X95619698Y-134028594D01*
X95398712Y-133999501D01*
X95398709Y-133999500D01*
X95398703Y-133999500D01*
X95175789Y-133999500D01*
X95175783Y-133999500D01*
X95175779Y-133999501D01*
X94954793Y-134028594D01*
X94954786Y-134028595D01*
X94954783Y-134028596D01*
X94828647Y-134062394D01*
X94739465Y-134086290D01*
X94739455Y-134086293D01*
X94533523Y-134171593D01*
X94533519Y-134171595D01*
X94340472Y-134283052D01*
X94340463Y-134283058D01*
X94163623Y-134418751D01*
X94163616Y-134418757D01*
X94006003Y-134576370D01*
X94005997Y-134576377D01*
X93870304Y-134753217D01*
X93870298Y-134753226D01*
X93758841Y-134946273D01*
X93758839Y-134946277D01*
X93673539Y-135152209D01*
X93673536Y-135152219D01*
X93618775Y-135356593D01*
X93615843Y-135367534D01*
X93615840Y-135367547D01*
X93586747Y-135588533D01*
X93586746Y-135588549D01*
X93586746Y-135811450D01*
X93586747Y-135811466D01*
X93615840Y-136032452D01*
X93615841Y-136032457D01*
X93615842Y-136032463D01*
X93615843Y-136032465D01*
X93673536Y-136247780D01*
X93673539Y-136247790D01*
X93758839Y-136453722D01*
X93758841Y-136453726D01*
X93870298Y-136646774D01*
X93870303Y-136646780D01*
X93870304Y-136646782D01*
X94005997Y-136823622D01*
X94006003Y-136823629D01*
X94163616Y-136981242D01*
X94163622Y-136981247D01*
X94340472Y-137116948D01*
X94533520Y-137228405D01*
X94568058Y-137242711D01*
X94727678Y-137308828D01*
X94739465Y-137313710D01*
X94954783Y-137371404D01*
X95175789Y-137400500D01*
X95175796Y-137400500D01*
X95398696Y-137400500D01*
X95398703Y-137400500D01*
X95619709Y-137371404D01*
X95835027Y-137313710D01*
X95911706Y-137281947D01*
X95981174Y-137274479D01*
X96043653Y-137305754D01*
X96046839Y-137308828D01*
X99103181Y-140365170D01*
X99136666Y-140426493D01*
X99139500Y-140452851D01*
X99139500Y-141599903D01*
X99119815Y-141666942D01*
X99103181Y-141687584D01*
X94127584Y-146663181D01*
X94066261Y-146696666D01*
X94039903Y-146699500D01*
X92707396Y-146699500D01*
X92640357Y-146679815D01*
X92594602Y-146627011D01*
X92584658Y-146557853D01*
X92604294Y-146506609D01*
X92669390Y-146409185D01*
X92669390Y-146409184D01*
X92669394Y-146409179D01*
X92670749Y-146405909D01*
X92711292Y-146308028D01*
X92729737Y-146263497D01*
X92760500Y-146108842D01*
X92760500Y-145951158D01*
X92760500Y-145951155D01*
X92760499Y-145951153D01*
X92729738Y-145796510D01*
X92729737Y-145796503D01*
X92673728Y-145661284D01*
X92669397Y-145650827D01*
X92669390Y-145650814D01*
X92581789Y-145519711D01*
X92581786Y-145519707D01*
X92470292Y-145408213D01*
X92470288Y-145408210D01*
X92339185Y-145320609D01*
X92339172Y-145320602D01*
X92193501Y-145260264D01*
X92193489Y-145260261D01*
X92038845Y-145229500D01*
X92038842Y-145229500D01*
X91881158Y-145229500D01*
X91881155Y-145229500D01*
X91726510Y-145260261D01*
X91726498Y-145260264D01*
X91580827Y-145320602D01*
X91580814Y-145320609D01*
X91449714Y-145408208D01*
X91449708Y-145408212D01*
X91430901Y-145427020D01*
X91392263Y-145453227D01*
X91384001Y-145456784D01*
X91333103Y-145470423D01*
X91282983Y-145499360D01*
X91276701Y-145502986D01*
X91276696Y-145502989D01*
X91196173Y-145549479D01*
X91196170Y-145549481D01*
X91084366Y-145661286D01*
X90739730Y-146005921D01*
X90678407Y-146039406D01*
X90613736Y-146036173D01*
X90599422Y-146031522D01*
X90424883Y-146003878D01*
X90397240Y-145999500D01*
X90192536Y-145999500D01*
X90168217Y-146003351D01*
X89990353Y-146031522D01*
X89795664Y-146094781D01*
X89613274Y-146187715D01*
X89447674Y-146308028D01*
X89302920Y-146452782D01*
X89302919Y-146452784D01*
X89262335Y-146508642D01*
X89207005Y-146551307D01*
X89137391Y-146557285D01*
X89075597Y-146524678D01*
X89044313Y-146474760D01*
X89029702Y-146430666D01*
X88937600Y-146281344D01*
X88813544Y-146157288D01*
X88664222Y-146065186D01*
X88497685Y-146010001D01*
X88497683Y-146010000D01*
X88394904Y-145999500D01*
X88394897Y-145999500D01*
X87394985Y-145999500D01*
X87327946Y-145979815D01*
X87307304Y-145963181D01*
X85286819Y-143942696D01*
X85253334Y-143881373D01*
X85250500Y-143855015D01*
X85250500Y-139250097D01*
X85270185Y-139183058D01*
X85286819Y-139162416D01*
X87012416Y-137436819D01*
X87073739Y-137403334D01*
X87100097Y-137400500D01*
X88787249Y-137400500D01*
X88787254Y-137400500D01*
X88890043Y-137389999D01*
X89056580Y-137334814D01*
X89205901Y-137242711D01*
X89329957Y-137118655D01*
X89422060Y-136969334D01*
X89477245Y-136802797D01*
X89487746Y-136700008D01*
X89487746Y-134900096D01*
X89507431Y-134833057D01*
X89524060Y-134812420D01*
X95928506Y-128407973D01*
X95928511Y-128407970D01*
X95938714Y-128397766D01*
X95938716Y-128397766D01*
X96050520Y-128285962D01*
X96098926Y-128202120D01*
X96102748Y-128195501D01*
X96102748Y-128195500D01*
X96129577Y-128149031D01*
X96170500Y-127996304D01*
X96170500Y-127838189D01*
X96170500Y-112180096D01*
X96179144Y-112150655D01*
X96185668Y-112120669D01*
X96189422Y-112115653D01*
X96190185Y-112113057D01*
X96206815Y-112092419D01*
X96237820Y-112061414D01*
X96299142Y-112027930D01*
X96368834Y-112032914D01*
X96424767Y-112074786D01*
X96449184Y-112140250D01*
X96449500Y-112149096D01*
X96449500Y-112250221D01*
X96483985Y-112467952D01*
X96552103Y-112677603D01*
X96552104Y-112677606D01*
X96588080Y-112748211D01*
X96647768Y-112865354D01*
X96652187Y-112874025D01*
X96781752Y-113052358D01*
X96781756Y-113052363D01*
X96937636Y-113208243D01*
X96937641Y-113208247D01*
X97077254Y-113309682D01*
X97119920Y-113365012D01*
X97125899Y-113434625D01*
X97093293Y-113496420D01*
X97077254Y-113510318D01*
X96937641Y-113611752D01*
X96937636Y-113611756D01*
X96781756Y-113767636D01*
X96781752Y-113767641D01*
X96652187Y-113945974D01*
X96552104Y-114142393D01*
X96552103Y-114142396D01*
X96483985Y-114352047D01*
X96473126Y-114420609D01*
X96449500Y-114569778D01*
X96449500Y-114790222D01*
X96463799Y-114880500D01*
X96483985Y-115007952D01*
X96552103Y-115217603D01*
X96552104Y-115217606D01*
X96583478Y-115279179D01*
X96651355Y-115412394D01*
X96652187Y-115414025D01*
X96781752Y-115592358D01*
X96781756Y-115592363D01*
X96937636Y-115748243D01*
X96937641Y-115748247D01*
X97077254Y-115849682D01*
X97119920Y-115905012D01*
X97125899Y-115974625D01*
X97093293Y-116036420D01*
X97077254Y-116050318D01*
X96937641Y-116151752D01*
X96937636Y-116151756D01*
X96781756Y-116307636D01*
X96781752Y-116307641D01*
X96652187Y-116485974D01*
X96552104Y-116682393D01*
X96552103Y-116682396D01*
X96483985Y-116892047D01*
X96449500Y-117109778D01*
X96449500Y-117330221D01*
X96483984Y-117547947D01*
X96483984Y-117547949D01*
X96552103Y-117757603D01*
X96552104Y-117757606D01*
X96620122Y-117891096D01*
X96651355Y-117952394D01*
X96652187Y-117954025D01*
X96781752Y-118132358D01*
X96781756Y-118132363D01*
X96937636Y-118288243D01*
X96937641Y-118288247D01*
X97077254Y-118389682D01*
X97119920Y-118445012D01*
X97125899Y-118514625D01*
X97093293Y-118576420D01*
X97077254Y-118590318D01*
X96937641Y-118691752D01*
X96937636Y-118691756D01*
X96781756Y-118847636D01*
X96781752Y-118847641D01*
X96652187Y-119025974D01*
X96552104Y-119222393D01*
X96552103Y-119222396D01*
X96483985Y-119432047D01*
X96449500Y-119649778D01*
X96449500Y-119870221D01*
X96483984Y-120087947D01*
X96483984Y-120087949D01*
X96552103Y-120297603D01*
X96552104Y-120297606D01*
X96652187Y-120494025D01*
X96781752Y-120672358D01*
X96781756Y-120672363D01*
X96937636Y-120828243D01*
X96937641Y-120828247D01*
X97077254Y-120929682D01*
X97119920Y-120985012D01*
X97125899Y-121054625D01*
X97093293Y-121116420D01*
X97077254Y-121130318D01*
X96937641Y-121231752D01*
X96937636Y-121231756D01*
X96781756Y-121387636D01*
X96781752Y-121387641D01*
X96652187Y-121565974D01*
X96552104Y-121762393D01*
X96552103Y-121762396D01*
X96483985Y-121972047D01*
X96449500Y-122189778D01*
X96449500Y-122410221D01*
X96483985Y-122627952D01*
X96552103Y-122837603D01*
X96552104Y-122837606D01*
X96620122Y-122971096D01*
X96651355Y-123032394D01*
X96652187Y-123034025D01*
X96781752Y-123212358D01*
X96781756Y-123212363D01*
X96937636Y-123368243D01*
X96937641Y-123368247D01*
X96973857Y-123394559D01*
X97115978Y-123497815D01*
X97244375Y-123563237D01*
X97312393Y-123597895D01*
X97312396Y-123597896D01*
X97379525Y-123619707D01*
X97522049Y-123666015D01*
X97739778Y-123700500D01*
X97739779Y-123700500D01*
X97960221Y-123700500D01*
X97960222Y-123700500D01*
X98177951Y-123666015D01*
X98248205Y-123643187D01*
X98318044Y-123641192D01*
X98374203Y-123673438D01*
X104145139Y-129444374D01*
X104145149Y-129444385D01*
X104149479Y-129448715D01*
X104149480Y-129448716D01*
X104261284Y-129560520D01*
X104348095Y-129610639D01*
X104348097Y-129610641D01*
X104386151Y-129632611D01*
X104398215Y-129639577D01*
X104550943Y-129680501D01*
X104550946Y-129680501D01*
X104716653Y-129680501D01*
X104716669Y-129680500D01*
X145193331Y-129680500D01*
X145193347Y-129680501D01*
X145200943Y-129680501D01*
X145359054Y-129680501D01*
X145359057Y-129680501D01*
X145511785Y-129639577D01*
X145561904Y-129610639D01*
X145648716Y-129560520D01*
X145760520Y-129448716D01*
X145760520Y-129448714D01*
X145770728Y-129438507D01*
X145770730Y-129438504D01*
X147478506Y-127730728D01*
X147478511Y-127730724D01*
X147488714Y-127720520D01*
X147488716Y-127720520D01*
X147600520Y-127608716D01*
X147678208Y-127474156D01*
X147679577Y-127471785D01*
X147720501Y-127319057D01*
X147720501Y-127160943D01*
X147720501Y-127153348D01*
X147720500Y-127153330D01*
X147720500Y-126859500D01*
X147740185Y-126792461D01*
X147792989Y-126746706D01*
X147844500Y-126735500D01*
X148227304Y-126735500D01*
X148227305Y-126735500D01*
X148459026Y-126698799D01*
X148682153Y-126626301D01*
X148891192Y-126519790D01*
X149080996Y-126381890D01*
X149246890Y-126215996D01*
X149384790Y-126026192D01*
X149491301Y-125817153D01*
X149563799Y-125594026D01*
X149600500Y-125362305D01*
X149600500Y-125127695D01*
X149563799Y-124895974D01*
X149513548Y-124741316D01*
X149491302Y-124672849D01*
X149473669Y-124638242D01*
X149384790Y-124463808D01*
X149367171Y-124439558D01*
X149246895Y-124274010D01*
X149246891Y-124274005D01*
X149080994Y-124108108D01*
X149080989Y-124108104D01*
X148891195Y-123970212D01*
X148891194Y-123970211D01*
X148891192Y-123970210D01*
X148749376Y-123897951D01*
X148682150Y-123863697D01*
X148459027Y-123791201D01*
X148343165Y-123772850D01*
X148227305Y-123754500D01*
X146012695Y-123754500D01*
X145935454Y-123766733D01*
X145780972Y-123791201D01*
X145557849Y-123863697D01*
X145348804Y-123970212D01*
X145159010Y-124108104D01*
X145159005Y-124108108D01*
X144993108Y-124274005D01*
X144993104Y-124274010D01*
X144855212Y-124463804D01*
X144748697Y-124672849D01*
X144676201Y-124895972D01*
X144639500Y-125127695D01*
X144639500Y-125362304D01*
X144676201Y-125594027D01*
X144748697Y-125817150D01*
X144797389Y-125912713D01*
X144839452Y-125995266D01*
X144855212Y-126026195D01*
X144993104Y-126215989D01*
X144993108Y-126215994D01*
X145159005Y-126381891D01*
X145159010Y-126381895D01*
X145291860Y-126478415D01*
X145348808Y-126519790D01*
X145557847Y-126626301D01*
X145557849Y-126626302D01*
X145669410Y-126662550D01*
X145780974Y-126698799D01*
X146012695Y-126735500D01*
X146395500Y-126735500D01*
X146404185Y-126738050D01*
X146413147Y-126736762D01*
X146437187Y-126747740D01*
X146462539Y-126755185D01*
X146468466Y-126762025D01*
X146476703Y-126765787D01*
X146490992Y-126788021D01*
X146508294Y-126807989D01*
X146510581Y-126818503D01*
X146514477Y-126824565D01*
X146519500Y-126859500D01*
X146519500Y-126939903D01*
X146499815Y-127006942D01*
X146483181Y-127027584D01*
X145067584Y-128443181D01*
X145006261Y-128476666D01*
X144979903Y-128479500D01*
X104930097Y-128479500D01*
X104863058Y-128459815D01*
X104842416Y-128443181D01*
X100888627Y-124489392D01*
X106549500Y-124489392D01*
X106549500Y-124741316D01*
X106569739Y-124869096D01*
X106588910Y-124990139D01*
X106666760Y-125229737D01*
X106734307Y-125362304D01*
X106771602Y-125435500D01*
X106781132Y-125454202D01*
X106929201Y-125658003D01*
X106929205Y-125658008D01*
X107107345Y-125836148D01*
X107107350Y-125836152D01*
X107118601Y-125844326D01*
X107311155Y-125984224D01*
X107441838Y-126050810D01*
X107535616Y-126098593D01*
X107535618Y-126098593D01*
X107535621Y-126098595D01*
X107775215Y-126176444D01*
X108024038Y-126215854D01*
X108024039Y-126215854D01*
X108275961Y-126215854D01*
X108275962Y-126215854D01*
X108524785Y-126176444D01*
X108764379Y-126098595D01*
X108988845Y-125984224D01*
X109192656Y-125836147D01*
X109370793Y-125658010D01*
X109518870Y-125454199D01*
X109605815Y-125283558D01*
X109653789Y-125232763D01*
X109716300Y-125215854D01*
X110833700Y-125215854D01*
X110900739Y-125235539D01*
X110944184Y-125283558D01*
X111021602Y-125435500D01*
X111031132Y-125454202D01*
X111179201Y-125658003D01*
X111179205Y-125658008D01*
X111357347Y-125836150D01*
X111386574Y-125857384D01*
X111429241Y-125912713D01*
X111435221Y-125982327D01*
X111416795Y-126026589D01*
X111400612Y-126050810D01*
X111400602Y-126050828D01*
X111340264Y-126196498D01*
X111340261Y-126196510D01*
X111309500Y-126351153D01*
X111309500Y-126508846D01*
X111340261Y-126663489D01*
X111340264Y-126663501D01*
X111400602Y-126809172D01*
X111400609Y-126809185D01*
X111488210Y-126940288D01*
X111488213Y-126940292D01*
X111599707Y-127051786D01*
X111599711Y-127051789D01*
X111730814Y-127139390D01*
X111730827Y-127139397D01*
X111876498Y-127199735D01*
X111876503Y-127199737D01*
X112031153Y-127230499D01*
X112031156Y-127230500D01*
X112031158Y-127230500D01*
X112188844Y-127230500D01*
X112188845Y-127230499D01*
X112343497Y-127199737D01*
X112457751Y-127152412D01*
X112489172Y-127139397D01*
X112489172Y-127139396D01*
X112489179Y-127139394D01*
X112620289Y-127051789D01*
X112731789Y-126940289D01*
X112819394Y-126809179D01*
X112879737Y-126663497D01*
X112910500Y-126508842D01*
X112910500Y-126490013D01*
X112914650Y-126474522D01*
X112913996Y-126460778D01*
X112927111Y-126428016D01*
X112940111Y-126405500D01*
X112959577Y-126371785D01*
X113000501Y-126219057D01*
X113000501Y-126181653D01*
X113020186Y-126114614D01*
X113068206Y-126071168D01*
X113238845Y-125984224D01*
X113442656Y-125836147D01*
X113620793Y-125658010D01*
X113768870Y-125454199D01*
X113855815Y-125283558D01*
X113903789Y-125232763D01*
X113966300Y-125215854D01*
X115083700Y-125215854D01*
X115150739Y-125235539D01*
X115194184Y-125283558D01*
X115271602Y-125435500D01*
X115281132Y-125454202D01*
X115429201Y-125658003D01*
X115429205Y-125658008D01*
X115607345Y-125836148D01*
X115607350Y-125836152D01*
X115618601Y-125844326D01*
X115811155Y-125984224D01*
X115941838Y-126050810D01*
X116035616Y-126098593D01*
X116035618Y-126098593D01*
X116035621Y-126098595D01*
X116275215Y-126176444D01*
X116524038Y-126215854D01*
X116524039Y-126215854D01*
X116775961Y-126215854D01*
X116775962Y-126215854D01*
X117024785Y-126176444D01*
X117264379Y-126098595D01*
X117488845Y-125984224D01*
X117692656Y-125836147D01*
X117870793Y-125658010D01*
X118018870Y-125454199D01*
X118105815Y-125283558D01*
X118153789Y-125232763D01*
X118216300Y-125215854D01*
X119333700Y-125215854D01*
X119400739Y-125235539D01*
X119444184Y-125283558D01*
X119521602Y-125435500D01*
X119531132Y-125454202D01*
X119679201Y-125658003D01*
X119679205Y-125658008D01*
X119857345Y-125836148D01*
X119857350Y-125836152D01*
X119868601Y-125844326D01*
X120061155Y-125984224D01*
X120191838Y-126050810D01*
X120285616Y-126098593D01*
X120285618Y-126098593D01*
X120285621Y-126098595D01*
X120525215Y-126176444D01*
X120774038Y-126215854D01*
X120774039Y-126215854D01*
X121025961Y-126215854D01*
X121025962Y-126215854D01*
X121274785Y-126176444D01*
X121514379Y-126098595D01*
X121738845Y-125984224D01*
X121942656Y-125836147D01*
X122120793Y-125658010D01*
X122268870Y-125454199D01*
X122355815Y-125283558D01*
X122403789Y-125232763D01*
X122466300Y-125215854D01*
X123690300Y-125215854D01*
X123690316Y-125215855D01*
X123697912Y-125215855D01*
X123856023Y-125215855D01*
X123856026Y-125215855D01*
X124008754Y-125174931D01*
X124058873Y-125145993D01*
X124145685Y-125095874D01*
X124257489Y-124984070D01*
X124257489Y-124984068D01*
X124267697Y-124973861D01*
X124267699Y-124973858D01*
X129260403Y-119981153D01*
X144009500Y-119981153D01*
X144009500Y-120138846D01*
X144040261Y-120293489D01*
X144040264Y-120293501D01*
X144100602Y-120439172D01*
X144100609Y-120439185D01*
X144188210Y-120570288D01*
X144188213Y-120570292D01*
X144299707Y-120681786D01*
X144299711Y-120681789D01*
X144430814Y-120769390D01*
X144430827Y-120769397D01*
X144562952Y-120824124D01*
X144617356Y-120867964D01*
X144639421Y-120934258D01*
X144639500Y-120938685D01*
X144639500Y-121282869D01*
X144639501Y-121282876D01*
X144645908Y-121342483D01*
X144696202Y-121477328D01*
X144696206Y-121477335D01*
X144782452Y-121592544D01*
X144782455Y-121592547D01*
X144897664Y-121678793D01*
X144897671Y-121678797D01*
X145032517Y-121729091D01*
X145032516Y-121729091D01*
X145039444Y-121729835D01*
X145092127Y-121735500D01*
X149147872Y-121735499D01*
X149207483Y-121729091D01*
X149342331Y-121678796D01*
X149457546Y-121592546D01*
X149543796Y-121477331D01*
X149594091Y-121342483D01*
X149600500Y-121282873D01*
X149600499Y-119207128D01*
X149594091Y-119147517D01*
X149554108Y-119040318D01*
X149543797Y-119012671D01*
X149543793Y-119012664D01*
X149457547Y-118897455D01*
X149457544Y-118897452D01*
X149342335Y-118811206D01*
X149342328Y-118811202D01*
X149207482Y-118760908D01*
X149207483Y-118760908D01*
X149147883Y-118754501D01*
X149147881Y-118754500D01*
X149147873Y-118754500D01*
X149147864Y-118754500D01*
X145092129Y-118754500D01*
X145092123Y-118754501D01*
X145032516Y-118760908D01*
X144897671Y-118811202D01*
X144897664Y-118811206D01*
X144782455Y-118897452D01*
X144782452Y-118897455D01*
X144696206Y-119012664D01*
X144696202Y-119012671D01*
X144645908Y-119147517D01*
X144640946Y-119193676D01*
X144614208Y-119258227D01*
X144565109Y-119294982D01*
X144430827Y-119350602D01*
X144430814Y-119350609D01*
X144299711Y-119438210D01*
X144299707Y-119438213D01*
X144188213Y-119549707D01*
X144188210Y-119549711D01*
X144100609Y-119680814D01*
X144100602Y-119680827D01*
X144040264Y-119826498D01*
X144040261Y-119826510D01*
X144009500Y-119981153D01*
X129260403Y-119981153D01*
X130866437Y-118375119D01*
X130927758Y-118341636D01*
X130992433Y-118344870D01*
X131118632Y-118385876D01*
X131203957Y-118399390D01*
X131351903Y-118422823D01*
X131351908Y-118422823D01*
X131588097Y-118422823D01*
X131821368Y-118385876D01*
X131821977Y-118385678D01*
X132045992Y-118312891D01*
X132256433Y-118205666D01*
X132447510Y-118066840D01*
X132614517Y-117899833D01*
X132753343Y-117708756D01*
X132860568Y-117498315D01*
X132933553Y-117273691D01*
X132948438Y-117179711D01*
X132970500Y-117040420D01*
X132970500Y-116804225D01*
X132933553Y-116570954D01*
X132882191Y-116412880D01*
X132860568Y-116346331D01*
X132860566Y-116346328D01*
X132860566Y-116346326D01*
X132753342Y-116135889D01*
X132729071Y-116102483D01*
X132614517Y-115944813D01*
X132447510Y-115777806D01*
X132256433Y-115638980D01*
X132239435Y-115630319D01*
X132045996Y-115531756D01*
X131821368Y-115458769D01*
X131588097Y-115421823D01*
X131588092Y-115421823D01*
X131351908Y-115421823D01*
X131351903Y-115421823D01*
X131118631Y-115458769D01*
X130894003Y-115531756D01*
X130683566Y-115638980D01*
X130598892Y-115700500D01*
X130492490Y-115777806D01*
X130492488Y-115777808D01*
X130492487Y-115777808D01*
X130325485Y-115944810D01*
X130325485Y-115944811D01*
X130325483Y-115944813D01*
X130292532Y-115990166D01*
X130186657Y-116135889D01*
X130079433Y-116346326D01*
X130006446Y-116570954D01*
X129969500Y-116804225D01*
X129969500Y-117040420D01*
X130006447Y-117273692D01*
X130006447Y-117273695D01*
X130047450Y-117399887D01*
X130049445Y-117469728D01*
X130017200Y-117525886D01*
X123564553Y-123978535D01*
X123503230Y-124012020D01*
X123476872Y-124014854D01*
X122466300Y-124014854D01*
X122399261Y-123995169D01*
X122355815Y-123947149D01*
X122330748Y-123897952D01*
X122268870Y-123776509D01*
X122249952Y-123750471D01*
X122120798Y-123572704D01*
X122120794Y-123572699D01*
X121942654Y-123394559D01*
X121942649Y-123394555D01*
X121738848Y-123246486D01*
X121738847Y-123246485D01*
X121738845Y-123246484D01*
X121668747Y-123210767D01*
X121514383Y-123132114D01*
X121274785Y-123054264D01*
X121025962Y-123014854D01*
X120774038Y-123014854D01*
X120663302Y-123032393D01*
X120525214Y-123054264D01*
X120285616Y-123132114D01*
X120061151Y-123246486D01*
X119857350Y-123394555D01*
X119857345Y-123394559D01*
X119679205Y-123572699D01*
X119679201Y-123572704D01*
X119531132Y-123776505D01*
X119531130Y-123776509D01*
X119469253Y-123897951D01*
X119444185Y-123947149D01*
X119396211Y-123997945D01*
X119333700Y-124014854D01*
X118216300Y-124014854D01*
X118149261Y-123995169D01*
X118105815Y-123947149D01*
X118080748Y-123897952D01*
X118018870Y-123776509D01*
X117999952Y-123750471D01*
X117870798Y-123572704D01*
X117870794Y-123572699D01*
X117692654Y-123394559D01*
X117692649Y-123394555D01*
X117488848Y-123246486D01*
X117488847Y-123246485D01*
X117488845Y-123246484D01*
X117418747Y-123210767D01*
X117264383Y-123132114D01*
X117024785Y-123054264D01*
X116775962Y-123014854D01*
X116524038Y-123014854D01*
X116413302Y-123032393D01*
X116275214Y-123054264D01*
X116035616Y-123132114D01*
X115811151Y-123246486D01*
X115607350Y-123394555D01*
X115607345Y-123394559D01*
X115429205Y-123572699D01*
X115429201Y-123572704D01*
X115281132Y-123776505D01*
X115281130Y-123776509D01*
X115219253Y-123897951D01*
X115194185Y-123947149D01*
X115146211Y-123997945D01*
X115083700Y-124014854D01*
X113966300Y-124014854D01*
X113899261Y-123995169D01*
X113855815Y-123947149D01*
X113830748Y-123897952D01*
X113768870Y-123776509D01*
X113749952Y-123750471D01*
X113620798Y-123572704D01*
X113620794Y-123572699D01*
X113442654Y-123394559D01*
X113442649Y-123394555D01*
X113238848Y-123246486D01*
X113238847Y-123246485D01*
X113238845Y-123246484D01*
X113168747Y-123210767D01*
X113014383Y-123132114D01*
X112774785Y-123054264D01*
X112525962Y-123014854D01*
X112274038Y-123014854D01*
X112163302Y-123032393D01*
X112025214Y-123054264D01*
X111785616Y-123132114D01*
X111561151Y-123246486D01*
X111357350Y-123394555D01*
X111357345Y-123394559D01*
X111179205Y-123572699D01*
X111179201Y-123572704D01*
X111031132Y-123776505D01*
X111031130Y-123776509D01*
X110969253Y-123897951D01*
X110944185Y-123947149D01*
X110896211Y-123997945D01*
X110833700Y-124014854D01*
X109716300Y-124014854D01*
X109649261Y-123995169D01*
X109605815Y-123947149D01*
X109580748Y-123897952D01*
X109518870Y-123776509D01*
X109499952Y-123750471D01*
X109370798Y-123572704D01*
X109370794Y-123572699D01*
X109192654Y-123394559D01*
X109192649Y-123394555D01*
X108988848Y-123246486D01*
X108988847Y-123246485D01*
X108988845Y-123246484D01*
X108918747Y-123210767D01*
X108764383Y-123132114D01*
X108524785Y-123054264D01*
X108275962Y-123014854D01*
X108024038Y-123014854D01*
X107913302Y-123032393D01*
X107775214Y-123054264D01*
X107535616Y-123132114D01*
X107311151Y-123246486D01*
X107107350Y-123394555D01*
X107107345Y-123394559D01*
X106929205Y-123572699D01*
X106929201Y-123572704D01*
X106781132Y-123776505D01*
X106666760Y-124000970D01*
X106588910Y-124240568D01*
X106588910Y-124240569D01*
X106549500Y-124489392D01*
X100888627Y-124489392D01*
X99511416Y-123112181D01*
X99477931Y-123050858D01*
X99482915Y-122981166D01*
X99524787Y-122925233D01*
X99590251Y-122900816D01*
X99599097Y-122900500D01*
X101343331Y-122900500D01*
X101343347Y-122900501D01*
X101350943Y-122900501D01*
X101509054Y-122900501D01*
X101509057Y-122900501D01*
X101661785Y-122859577D01*
X101711904Y-122830639D01*
X101798716Y-122780520D01*
X101910520Y-122668716D01*
X101910520Y-122668714D01*
X101920728Y-122658507D01*
X101920730Y-122658504D01*
X108487061Y-116092173D01*
X108548384Y-116058688D01*
X108574742Y-116055854D01*
X109050005Y-116055854D01*
X109050010Y-116055854D01*
X109152798Y-116045353D01*
X109319335Y-115990168D01*
X109468656Y-115898066D01*
X109592712Y-115774010D01*
X109684814Y-115624689D01*
X109733033Y-115479173D01*
X109772804Y-115421730D01*
X109837320Y-115394907D01*
X109906096Y-115407222D01*
X109938419Y-115430498D01*
X110029707Y-115521786D01*
X110029711Y-115521789D01*
X110160814Y-115609390D01*
X110160827Y-115609397D01*
X110306498Y-115669735D01*
X110306503Y-115669737D01*
X110461153Y-115700499D01*
X110461156Y-115700500D01*
X110461158Y-115700500D01*
X110618844Y-115700500D01*
X110618845Y-115700499D01*
X110773497Y-115669737D01*
X110773509Y-115669731D01*
X110779324Y-115667969D01*
X110779877Y-115669793D01*
X110840530Y-115663252D01*
X110903020Y-115694506D01*
X110924092Y-115720192D01*
X110957285Y-115774006D01*
X110957288Y-115774010D01*
X111081344Y-115898066D01*
X111230665Y-115990168D01*
X111397202Y-116045353D01*
X111499990Y-116055854D01*
X111499995Y-116055854D01*
X113300005Y-116055854D01*
X113300010Y-116055854D01*
X113402798Y-116045353D01*
X113569335Y-115990168D01*
X113718656Y-115898066D01*
X113842712Y-115774010D01*
X113934814Y-115624689D01*
X113989999Y-115458152D01*
X114000500Y-115355364D01*
X114000500Y-114711941D01*
X114020185Y-114644902D01*
X114072989Y-114599147D01*
X114142147Y-114589203D01*
X114205703Y-114618228D01*
X114212181Y-114624260D01*
X114289707Y-114701786D01*
X114289711Y-114701789D01*
X114420814Y-114789390D01*
X114420827Y-114789397D01*
X114566498Y-114849735D01*
X114566503Y-114849737D01*
X114721158Y-114880500D01*
X114721847Y-114880637D01*
X114783758Y-114913022D01*
X114785337Y-114914573D01*
X114806638Y-114935874D01*
X114806640Y-114935875D01*
X114806644Y-114935878D01*
X114863666Y-114968799D01*
X114943570Y-115014931D01*
X114957594Y-115018688D01*
X115017254Y-115055053D01*
X115047783Y-115117899D01*
X115049500Y-115138463D01*
X115049500Y-115355371D01*
X115060000Y-115458150D01*
X115115185Y-115624686D01*
X115115187Y-115624691D01*
X115124808Y-115640289D01*
X115207288Y-115774010D01*
X115331344Y-115898066D01*
X115480665Y-115990168D01*
X115647202Y-116045353D01*
X115749990Y-116055854D01*
X115749995Y-116055854D01*
X117550005Y-116055854D01*
X117550010Y-116055854D01*
X117652798Y-116045353D01*
X117819335Y-115990168D01*
X117968656Y-115898066D01*
X118092712Y-115774010D01*
X118184814Y-115624689D01*
X118239999Y-115458152D01*
X118250500Y-115355364D01*
X118250500Y-114641941D01*
X118270185Y-114574902D01*
X118322989Y-114529147D01*
X118392147Y-114519203D01*
X118455703Y-114548228D01*
X118462181Y-114554260D01*
X118469707Y-114561786D01*
X118469711Y-114561789D01*
X118600814Y-114649390D01*
X118600827Y-114649397D01*
X118734161Y-114704625D01*
X118746503Y-114709737D01*
X118901158Y-114740500D01*
X118901847Y-114740637D01*
X118963758Y-114773022D01*
X118965337Y-114774573D01*
X119126638Y-114935874D01*
X119237501Y-114999880D01*
X119285715Y-115050445D01*
X119299500Y-115107266D01*
X119299500Y-115355371D01*
X119310000Y-115458150D01*
X119365185Y-115624686D01*
X119365187Y-115624691D01*
X119374808Y-115640289D01*
X119457288Y-115774010D01*
X119581344Y-115898066D01*
X119730665Y-115990168D01*
X119897202Y-116045353D01*
X119999990Y-116055854D01*
X119999995Y-116055854D01*
X121800005Y-116055854D01*
X121800010Y-116055854D01*
X121902798Y-116045353D01*
X122069335Y-115990168D01*
X122218656Y-115898066D01*
X122342712Y-115774010D01*
X122434814Y-115624689D01*
X122489999Y-115458152D01*
X122500500Y-115355364D01*
X122500500Y-113555344D01*
X122489999Y-113452556D01*
X122436515Y-113291153D01*
X143909500Y-113291153D01*
X143909500Y-113448846D01*
X143940261Y-113603489D01*
X143940264Y-113603501D01*
X144000602Y-113749172D01*
X144000609Y-113749185D01*
X144088210Y-113880288D01*
X144088213Y-113880292D01*
X144199707Y-113991786D01*
X144199711Y-113991789D01*
X144330814Y-114079390D01*
X144330827Y-114079397D01*
X144453633Y-114130264D01*
X144476503Y-114139737D01*
X144597822Y-114163869D01*
X144631153Y-114170499D01*
X144631156Y-114170500D01*
X144631158Y-114170500D01*
X144655179Y-114170500D01*
X144722218Y-114190185D01*
X144765664Y-114238205D01*
X144769705Y-114246135D01*
X144792710Y-114291286D01*
X144795212Y-114296195D01*
X144933104Y-114485989D01*
X144933108Y-114485994D01*
X145099005Y-114651891D01*
X145099010Y-114651895D01*
X145235180Y-114750827D01*
X145288808Y-114789790D01*
X145466836Y-114880500D01*
X145497849Y-114896302D01*
X145609410Y-114932550D01*
X145720974Y-114968799D01*
X145952695Y-115005500D01*
X145952696Y-115005500D01*
X148167304Y-115005500D01*
X148167305Y-115005500D01*
X148399026Y-114968799D01*
X148622153Y-114896301D01*
X148831192Y-114789790D01*
X149020996Y-114651890D01*
X149186890Y-114485996D01*
X149324790Y-114296192D01*
X149431301Y-114087153D01*
X149503799Y-113864026D01*
X149540500Y-113632305D01*
X149540500Y-113397695D01*
X149503799Y-113165974D01*
X149446889Y-112990821D01*
X149431302Y-112942849D01*
X149396234Y-112874025D01*
X149324790Y-112733808D01*
X149271603Y-112660602D01*
X149186895Y-112544010D01*
X149186891Y-112544005D01*
X149020994Y-112378108D01*
X149020989Y-112378104D01*
X148831195Y-112240212D01*
X148831194Y-112240211D01*
X148831192Y-112240210D01*
X148713212Y-112180096D01*
X148622150Y-112133697D01*
X148399027Y-112061201D01*
X148283165Y-112042850D01*
X148167305Y-112024500D01*
X145952695Y-112024500D01*
X145899571Y-112032914D01*
X145720972Y-112061201D01*
X145497849Y-112133697D01*
X145288804Y-112240212D01*
X145099011Y-112378103D01*
X144934774Y-112542339D01*
X144873450Y-112575823D01*
X144822903Y-112576275D01*
X144788842Y-112569500D01*
X144631158Y-112569500D01*
X144631155Y-112569500D01*
X144476510Y-112600261D01*
X144476498Y-112600264D01*
X144330827Y-112660602D01*
X144330814Y-112660609D01*
X144199711Y-112748210D01*
X144199707Y-112748213D01*
X144088213Y-112859707D01*
X144088210Y-112859711D01*
X144000609Y-112990814D01*
X144000602Y-112990827D01*
X143940264Y-113136498D01*
X143940261Y-113136510D01*
X143909500Y-113291153D01*
X122436515Y-113291153D01*
X122434814Y-113286019D01*
X122342712Y-113136698D01*
X122218656Y-113012642D01*
X122105504Y-112942849D01*
X122069337Y-112920541D01*
X122069332Y-112920539D01*
X122067863Y-112920052D01*
X121902798Y-112865355D01*
X121902796Y-112865354D01*
X121800017Y-112854854D01*
X121800010Y-112854854D01*
X121634500Y-112854854D01*
X121567461Y-112835169D01*
X121521706Y-112782365D01*
X121510500Y-112730854D01*
X121510500Y-110906300D01*
X121530185Y-110839261D01*
X121578204Y-110795815D01*
X121748845Y-110708870D01*
X121952656Y-110560793D01*
X122130793Y-110382656D01*
X122278870Y-110178845D01*
X122393241Y-109954379D01*
X122471090Y-109714785D01*
X122510500Y-109465962D01*
X122510500Y-109214038D01*
X122471090Y-108965215D01*
X122393241Y-108725621D01*
X122393239Y-108725618D01*
X122393239Y-108725616D01*
X122340598Y-108622304D01*
X122278870Y-108501155D01*
X122215996Y-108414616D01*
X122130798Y-108297350D01*
X122130794Y-108297345D01*
X121952654Y-108119205D01*
X121952649Y-108119201D01*
X121748848Y-107971132D01*
X121748847Y-107971131D01*
X121748845Y-107971130D01*
X121667100Y-107929479D01*
X121524383Y-107856760D01*
X121284785Y-107778910D01*
X121035962Y-107739500D01*
X120784038Y-107739500D01*
X120659626Y-107759205D01*
X120535214Y-107778910D01*
X120295616Y-107856760D01*
X120071151Y-107971132D01*
X119867350Y-108119201D01*
X119867345Y-108119205D01*
X119689205Y-108297345D01*
X119689201Y-108297350D01*
X119541132Y-108501151D01*
X119426760Y-108725616D01*
X119348910Y-108965214D01*
X119331014Y-109078204D01*
X119309500Y-109214038D01*
X119309500Y-109465962D01*
X119323266Y-109552876D01*
X119348910Y-109714785D01*
X119426760Y-109954383D01*
X119502007Y-110102062D01*
X119531312Y-110159577D01*
X119541132Y-110178848D01*
X119689201Y-110382649D01*
X119689205Y-110382654D01*
X119867345Y-110560794D01*
X119867350Y-110560798D01*
X120026615Y-110676510D01*
X120071155Y-110708870D01*
X120241795Y-110795815D01*
X120292591Y-110843789D01*
X120309500Y-110906300D01*
X120309500Y-112730854D01*
X120289815Y-112797893D01*
X120237011Y-112843648D01*
X120185500Y-112854854D01*
X119999982Y-112854854D01*
X119897203Y-112865354D01*
X119897202Y-112865355D01*
X119814669Y-112892703D01*
X119730667Y-112920539D01*
X119730662Y-112920541D01*
X119581342Y-113012643D01*
X119457288Y-113136697D01*
X119457283Y-113136703D01*
X119446618Y-113153994D01*
X119394669Y-113200717D01*
X119325706Y-113211937D01*
X119293632Y-113203455D01*
X119213497Y-113170263D01*
X119213489Y-113170261D01*
X119058845Y-113139500D01*
X119058842Y-113139500D01*
X118901158Y-113139500D01*
X118901155Y-113139500D01*
X118746510Y-113170261D01*
X118746498Y-113170264D01*
X118600827Y-113230602D01*
X118600814Y-113230609D01*
X118469711Y-113318210D01*
X118405886Y-113382035D01*
X118344562Y-113415519D01*
X118274871Y-113410534D01*
X118218937Y-113368663D01*
X118200500Y-113333358D01*
X118184814Y-113286019D01*
X118092712Y-113136698D01*
X117968656Y-113012642D01*
X117855504Y-112942849D01*
X117819337Y-112920541D01*
X117819332Y-112920539D01*
X117817863Y-112920052D01*
X117652798Y-112865355D01*
X117652796Y-112865354D01*
X117550017Y-112854854D01*
X117550010Y-112854854D01*
X117444500Y-112854854D01*
X117377461Y-112835169D01*
X117331706Y-112782365D01*
X117320500Y-112730854D01*
X117320500Y-110816300D01*
X117340185Y-110749261D01*
X117388204Y-110705815D01*
X117558845Y-110618870D01*
X117762656Y-110470793D01*
X117940793Y-110292656D01*
X118088870Y-110088845D01*
X118203241Y-109864379D01*
X118281090Y-109624785D01*
X118320500Y-109375962D01*
X118320500Y-109124038D01*
X118281090Y-108875215D01*
X118203241Y-108635621D01*
X118203239Y-108635618D01*
X118203239Y-108635616D01*
X118150317Y-108531752D01*
X118088870Y-108411155D01*
X118047799Y-108354625D01*
X117940798Y-108207350D01*
X117940794Y-108207345D01*
X117762654Y-108029205D01*
X117762649Y-108029201D01*
X117558848Y-107881132D01*
X117558847Y-107881131D01*
X117558845Y-107881130D01*
X117488747Y-107845413D01*
X117334383Y-107766760D01*
X117094785Y-107688910D01*
X116845962Y-107649500D01*
X116594038Y-107649500D01*
X116469626Y-107669205D01*
X116345214Y-107688910D01*
X116105616Y-107766760D01*
X115881151Y-107881132D01*
X115677350Y-108029201D01*
X115677345Y-108029205D01*
X115499205Y-108207345D01*
X115499201Y-108207350D01*
X115351132Y-108411151D01*
X115236760Y-108635616D01*
X115158910Y-108875214D01*
X115119500Y-109124038D01*
X115119500Y-109375961D01*
X115158910Y-109624785D01*
X115236760Y-109864383D01*
X115289921Y-109968716D01*
X115346888Y-110080520D01*
X115351132Y-110088848D01*
X115499201Y-110292649D01*
X115499205Y-110292654D01*
X115677345Y-110470794D01*
X115677350Y-110470798D01*
X115855117Y-110599952D01*
X115881155Y-110618870D01*
X116051795Y-110705815D01*
X116102591Y-110753789D01*
X116119500Y-110816300D01*
X116119500Y-112730854D01*
X116099815Y-112797893D01*
X116047011Y-112843648D01*
X115995500Y-112854854D01*
X115749982Y-112854854D01*
X115647203Y-112865354D01*
X115647202Y-112865355D01*
X115564669Y-112892703D01*
X115480667Y-112920539D01*
X115480662Y-112920541D01*
X115331342Y-113012643D01*
X115207287Y-113136698D01*
X115138167Y-113248759D01*
X115086219Y-113295483D01*
X115017256Y-113306704D01*
X115008437Y-113305278D01*
X114878844Y-113279500D01*
X114878842Y-113279500D01*
X114721158Y-113279500D01*
X114721155Y-113279500D01*
X114566510Y-113310261D01*
X114566498Y-113310264D01*
X114420827Y-113370602D01*
X114420814Y-113370609D01*
X114289711Y-113458210D01*
X114202822Y-113545099D01*
X114141498Y-113578583D01*
X114071807Y-113573599D01*
X114015873Y-113531727D01*
X113991783Y-113470019D01*
X113990577Y-113458211D01*
X113989999Y-113452556D01*
X113934814Y-113286019D01*
X113842712Y-113136698D01*
X113718656Y-113012642D01*
X113605504Y-112942849D01*
X113569337Y-112920541D01*
X113569332Y-112920539D01*
X113567863Y-112920052D01*
X113402798Y-112865355D01*
X113402796Y-112865354D01*
X113300017Y-112854854D01*
X113300010Y-112854854D01*
X113194500Y-112854854D01*
X113127461Y-112835169D01*
X113081706Y-112782365D01*
X113070500Y-112730854D01*
X113070500Y-110816300D01*
X113090185Y-110749261D01*
X113138204Y-110705815D01*
X113308845Y-110618870D01*
X113512656Y-110470793D01*
X113690793Y-110292656D01*
X113838870Y-110088845D01*
X113953241Y-109864379D01*
X114031090Y-109624785D01*
X114070500Y-109375962D01*
X114070500Y-109124038D01*
X114031090Y-108875215D01*
X113953241Y-108635621D01*
X113953239Y-108635618D01*
X113953239Y-108635616D01*
X113900317Y-108531752D01*
X113838870Y-108411155D01*
X113797799Y-108354625D01*
X113690798Y-108207350D01*
X113690794Y-108207345D01*
X113512654Y-108029205D01*
X113512649Y-108029201D01*
X113308848Y-107881132D01*
X113308847Y-107881131D01*
X113308845Y-107881130D01*
X113238747Y-107845413D01*
X113084383Y-107766760D01*
X112844785Y-107688910D01*
X112595962Y-107649500D01*
X112344038Y-107649500D01*
X112219626Y-107669205D01*
X112095214Y-107688910D01*
X111855616Y-107766760D01*
X111631151Y-107881132D01*
X111427350Y-108029201D01*
X111427345Y-108029205D01*
X111249205Y-108207345D01*
X111249201Y-108207350D01*
X111101132Y-108411151D01*
X110986760Y-108635616D01*
X110908910Y-108875214D01*
X110869500Y-109124038D01*
X110869500Y-109375961D01*
X110908910Y-109624785D01*
X110986760Y-109864383D01*
X111039921Y-109968716D01*
X111096888Y-110080520D01*
X111101132Y-110088848D01*
X111249201Y-110292649D01*
X111249205Y-110292654D01*
X111427345Y-110470794D01*
X111427350Y-110470798D01*
X111605117Y-110599952D01*
X111631155Y-110618870D01*
X111801795Y-110705815D01*
X111852591Y-110753789D01*
X111869500Y-110816300D01*
X111869500Y-112730854D01*
X111849815Y-112797893D01*
X111797011Y-112843648D01*
X111745500Y-112854854D01*
X111499982Y-112854854D01*
X111397203Y-112865354D01*
X111397202Y-112865355D01*
X111314669Y-112892703D01*
X111230667Y-112920539D01*
X111230662Y-112920541D01*
X111081342Y-113012643D01*
X110957289Y-113136696D01*
X110865187Y-113286016D01*
X110865185Y-113286021D01*
X110852739Y-113323580D01*
X110810001Y-113452556D01*
X110810001Y-113452557D01*
X110810000Y-113452557D01*
X110799500Y-113555336D01*
X110799500Y-113797259D01*
X110779815Y-113864298D01*
X110737499Y-113904646D01*
X110615936Y-113974829D01*
X110615932Y-113974832D01*
X110525337Y-114065427D01*
X110464013Y-114098911D01*
X110461848Y-114099362D01*
X110306508Y-114130261D01*
X110306498Y-114130264D01*
X110160827Y-114190602D01*
X110160814Y-114190609D01*
X110029711Y-114278210D01*
X110029707Y-114278213D01*
X109962181Y-114345740D01*
X109900858Y-114379225D01*
X109831166Y-114374241D01*
X109775233Y-114332369D01*
X109750816Y-114266905D01*
X109750500Y-114258059D01*
X109750500Y-113555349D01*
X109750499Y-113555336D01*
X109740247Y-113454989D01*
X109739999Y-113452556D01*
X109684814Y-113286019D01*
X109592712Y-113136698D01*
X109468656Y-113012642D01*
X109355504Y-112942849D01*
X109319337Y-112920541D01*
X109319332Y-112920539D01*
X109317863Y-112920052D01*
X109152798Y-112865355D01*
X109152796Y-112865354D01*
X109050017Y-112854854D01*
X109050010Y-112854854D01*
X108944500Y-112854854D01*
X108877461Y-112835169D01*
X108831706Y-112782365D01*
X108820500Y-112730854D01*
X108820500Y-110816300D01*
X108840185Y-110749261D01*
X108888204Y-110705815D01*
X109058845Y-110618870D01*
X109262656Y-110470793D01*
X109440793Y-110292656D01*
X109588870Y-110088845D01*
X109703241Y-109864379D01*
X109781090Y-109624785D01*
X109820500Y-109375962D01*
X109820500Y-109124038D01*
X109781090Y-108875215D01*
X109703241Y-108635621D01*
X109703239Y-108635618D01*
X109703239Y-108635616D01*
X109650317Y-108531752D01*
X109588870Y-108411155D01*
X109547799Y-108354625D01*
X109440798Y-108207350D01*
X109440794Y-108207345D01*
X109262654Y-108029205D01*
X109262649Y-108029201D01*
X109058848Y-107881132D01*
X109058847Y-107881131D01*
X109058845Y-107881130D01*
X108988747Y-107845413D01*
X108834383Y-107766760D01*
X108594785Y-107688910D01*
X108345962Y-107649500D01*
X108094038Y-107649500D01*
X107969626Y-107669205D01*
X107845214Y-107688910D01*
X107605616Y-107766760D01*
X107381151Y-107881132D01*
X107177350Y-108029201D01*
X107177345Y-108029205D01*
X106999205Y-108207345D01*
X106999201Y-108207350D01*
X106851132Y-108411151D01*
X106736760Y-108635616D01*
X106658910Y-108875214D01*
X106619500Y-109124038D01*
X106619500Y-109375961D01*
X106658910Y-109624785D01*
X106736760Y-109864383D01*
X106789921Y-109968716D01*
X106846888Y-110080520D01*
X106851132Y-110088848D01*
X106999201Y-110292649D01*
X106999205Y-110292654D01*
X107177345Y-110470794D01*
X107177350Y-110470798D01*
X107355117Y-110599952D01*
X107381155Y-110618870D01*
X107551795Y-110705815D01*
X107602591Y-110753789D01*
X107619500Y-110816300D01*
X107619500Y-112730854D01*
X107599815Y-112797893D01*
X107547011Y-112843648D01*
X107495500Y-112854854D01*
X107249982Y-112854854D01*
X107147203Y-112865354D01*
X107147202Y-112865355D01*
X107064669Y-112892703D01*
X106980667Y-112920539D01*
X106980662Y-112920541D01*
X106831342Y-113012643D01*
X106707289Y-113136696D01*
X106615187Y-113286016D01*
X106615185Y-113286021D01*
X106602739Y-113323580D01*
X106560001Y-113452556D01*
X106560001Y-113452557D01*
X106560000Y-113452557D01*
X106549500Y-113555336D01*
X106549500Y-115355371D01*
X106560000Y-115458150D01*
X106615185Y-115624686D01*
X106615187Y-115624691D01*
X106624808Y-115640289D01*
X106691397Y-115748247D01*
X106707289Y-115774011D01*
X106819340Y-115886062D01*
X106852825Y-115947385D01*
X106847841Y-116017077D01*
X106819340Y-116061424D01*
X101429149Y-121451614D01*
X101367826Y-121485099D01*
X101298134Y-121480115D01*
X101242201Y-121438243D01*
X101226907Y-121411385D01*
X101189397Y-121320827D01*
X101189390Y-121320814D01*
X101101398Y-121189125D01*
X101080520Y-121122447D01*
X101080500Y-121120234D01*
X101080500Y-115839060D01*
X101080501Y-115839047D01*
X101080501Y-115670944D01*
X101071936Y-115638980D01*
X101039577Y-115518216D01*
X101034360Y-115509179D01*
X100960524Y-115381290D01*
X100960518Y-115381282D01*
X99877590Y-114298355D01*
X99877588Y-114298352D01*
X99758717Y-114179481D01*
X99758709Y-114179475D01*
X99654828Y-114119500D01*
X99654825Y-114119499D01*
X99621787Y-114100424D01*
X99621786Y-114100423D01*
X99621785Y-114100423D01*
X99469057Y-114059499D01*
X99310943Y-114059499D01*
X99303347Y-114059499D01*
X99303331Y-114059500D01*
X99181645Y-114059500D01*
X99114606Y-114039815D01*
X99071160Y-113991795D01*
X99071157Y-113991789D01*
X99047815Y-113945978D01*
X99000092Y-113880292D01*
X98918247Y-113767641D01*
X98918243Y-113767636D01*
X98762363Y-113611756D01*
X98762358Y-113611752D01*
X98622745Y-113510318D01*
X98580079Y-113454989D01*
X98574100Y-113385375D01*
X98606705Y-113323580D01*
X98622745Y-113309682D01*
X98762358Y-113208247D01*
X98762356Y-113208247D01*
X98762365Y-113208242D01*
X98918242Y-113052365D01*
X99047815Y-112874022D01*
X99147895Y-112677606D01*
X99216015Y-112467951D01*
X99250500Y-112250222D01*
X99250500Y-112029778D01*
X99216015Y-111812049D01*
X99153419Y-111619394D01*
X99147896Y-111602396D01*
X99147895Y-111602393D01*
X99111918Y-111531786D01*
X99047815Y-111405978D01*
X98996401Y-111335212D01*
X98918247Y-111227641D01*
X98918243Y-111227636D01*
X98762363Y-111071756D01*
X98762358Y-111071752D01*
X98622745Y-110970318D01*
X98580079Y-110914989D01*
X98574100Y-110845375D01*
X98606705Y-110783580D01*
X98622745Y-110769682D01*
X98750995Y-110676503D01*
X98762365Y-110668242D01*
X98918242Y-110512365D01*
X99047815Y-110334022D01*
X99064581Y-110301117D01*
X99081352Y-110268204D01*
X99129326Y-110217409D01*
X99191836Y-110200500D01*
X100313331Y-110200500D01*
X100313347Y-110200501D01*
X100320943Y-110200501D01*
X100479054Y-110200501D01*
X100479057Y-110200501D01*
X100631785Y-110159577D01*
X100681904Y-110130639D01*
X100768716Y-110080520D01*
X100880520Y-109968716D01*
X100880520Y-109968714D01*
X100890728Y-109958507D01*
X100890730Y-109958504D01*
X105728506Y-105120728D01*
X105728511Y-105120724D01*
X105738714Y-105110520D01*
X105738716Y-105110520D01*
X105850520Y-104998716D01*
X105929577Y-104861784D01*
X105970500Y-104709057D01*
X105970500Y-102240097D01*
X105990185Y-102173058D01*
X106006819Y-102152416D01*
X107432417Y-100726819D01*
X107493740Y-100693334D01*
X107520098Y-100690500D01*
X109120005Y-100690500D01*
X109120010Y-100690500D01*
X109222798Y-100679999D01*
X109389335Y-100624814D01*
X109538656Y-100532712D01*
X109662712Y-100408656D01*
X109754814Y-100259335D01*
X109809999Y-100092798D01*
X109820500Y-99990010D01*
X109820500Y-99814500D01*
X109840185Y-99747461D01*
X109892989Y-99701706D01*
X109944500Y-99690500D01*
X110745500Y-99690500D01*
X110812539Y-99710185D01*
X110858294Y-99762989D01*
X110869500Y-99814500D01*
X110869500Y-99990017D01*
X110880000Y-100092796D01*
X110880001Y-100092798D01*
X110935186Y-100259335D01*
X111027288Y-100408656D01*
X111151344Y-100532712D01*
X111300665Y-100624814D01*
X111467202Y-100679999D01*
X111569990Y-100690500D01*
X111569995Y-100690500D01*
X113370005Y-100690500D01*
X113370010Y-100690500D01*
X113472798Y-100679999D01*
X113639335Y-100624814D01*
X113788656Y-100532712D01*
X113912712Y-100408656D01*
X114004814Y-100259335D01*
X114059999Y-100092798D01*
X114070500Y-99990010D01*
X114070500Y-99814500D01*
X114090185Y-99747461D01*
X114142989Y-99701706D01*
X114194500Y-99690500D01*
X114995500Y-99690500D01*
X115062539Y-99710185D01*
X115108294Y-99762989D01*
X115119500Y-99814500D01*
X115119500Y-99990017D01*
X115130000Y-100092796D01*
X115130001Y-100092798D01*
X115185186Y-100259335D01*
X115277288Y-100408656D01*
X115401344Y-100532712D01*
X115550665Y-100624814D01*
X115717202Y-100679999D01*
X115819990Y-100690500D01*
X115819995Y-100690500D01*
X117620005Y-100690500D01*
X117620010Y-100690500D01*
X117722798Y-100679999D01*
X117889335Y-100624814D01*
X118038656Y-100532712D01*
X118162712Y-100408656D01*
X118254814Y-100259335D01*
X118309999Y-100092798D01*
X118320500Y-99990010D01*
X118320500Y-99904500D01*
X118340185Y-99837461D01*
X118392989Y-99791706D01*
X118444500Y-99780500D01*
X119185500Y-99780500D01*
X119252539Y-99800185D01*
X119298294Y-99852989D01*
X119309500Y-99904500D01*
X119309500Y-100080017D01*
X119320000Y-100182796D01*
X119375185Y-100349332D01*
X119375186Y-100349335D01*
X119467288Y-100498656D01*
X119591344Y-100622712D01*
X119740665Y-100714814D01*
X119907202Y-100769999D01*
X120009990Y-100780500D01*
X121609903Y-100780500D01*
X121676942Y-100800185D01*
X121697584Y-100816819D01*
X129933181Y-109052416D01*
X129966666Y-109113739D01*
X129969500Y-109140097D01*
X129969500Y-110222324D01*
X129969501Y-110222341D01*
X129980000Y-110325119D01*
X129980001Y-110325122D01*
X130028272Y-110470793D01*
X130035186Y-110491657D01*
X130127288Y-110640979D01*
X130251344Y-110765035D01*
X130400666Y-110857137D01*
X130567203Y-110912322D01*
X130669991Y-110922823D01*
X132270008Y-110922822D01*
X132372797Y-110912322D01*
X132539334Y-110857137D01*
X132688656Y-110765035D01*
X132812712Y-110640979D01*
X132904814Y-110491657D01*
X132959999Y-110325120D01*
X132970500Y-110222332D01*
X132970499Y-108622315D01*
X132959999Y-108519526D01*
X132904814Y-108352989D01*
X132860505Y-108281153D01*
X144049500Y-108281153D01*
X144049500Y-108438846D01*
X144080261Y-108593489D01*
X144080264Y-108593501D01*
X144140602Y-108739172D01*
X144140609Y-108739185D01*
X144228210Y-108870288D01*
X144228213Y-108870292D01*
X144339707Y-108981786D01*
X144339711Y-108981789D01*
X144470814Y-109069390D01*
X144470821Y-109069394D01*
X144502952Y-109082703D01*
X144557355Y-109126542D01*
X144579421Y-109192836D01*
X144579500Y-109197264D01*
X144579500Y-109552869D01*
X144579501Y-109552876D01*
X144585908Y-109612483D01*
X144636202Y-109747328D01*
X144636206Y-109747335D01*
X144722452Y-109862544D01*
X144722455Y-109862547D01*
X144837664Y-109948793D01*
X144837671Y-109948797D01*
X144972517Y-109999091D01*
X144972516Y-109999091D01*
X144979444Y-109999835D01*
X145032127Y-110005500D01*
X149087872Y-110005499D01*
X149147483Y-109999091D01*
X149282331Y-109948796D01*
X149397546Y-109862546D01*
X149483796Y-109747331D01*
X149534091Y-109612483D01*
X149540500Y-109552873D01*
X149540499Y-107477128D01*
X149534091Y-107417517D01*
X149520450Y-107380944D01*
X149483797Y-107282671D01*
X149483793Y-107282664D01*
X149397547Y-107167455D01*
X149397544Y-107167452D01*
X149282335Y-107081206D01*
X149282328Y-107081202D01*
X149147482Y-107030908D01*
X149147483Y-107030908D01*
X149087883Y-107024501D01*
X149087881Y-107024500D01*
X149087873Y-107024500D01*
X149087864Y-107024500D01*
X145032129Y-107024500D01*
X145032123Y-107024501D01*
X144972516Y-107030908D01*
X144837671Y-107081202D01*
X144837664Y-107081206D01*
X144722455Y-107167452D01*
X144722452Y-107167455D01*
X144636206Y-107282664D01*
X144636202Y-107282671D01*
X144585908Y-107417517D01*
X144579501Y-107477116D01*
X144579501Y-107477123D01*
X144579500Y-107477135D01*
X144579500Y-107522735D01*
X144559815Y-107589774D01*
X144507011Y-107635529D01*
X144502954Y-107637296D01*
X144470820Y-107650606D01*
X144470814Y-107650609D01*
X144339711Y-107738210D01*
X144339707Y-107738213D01*
X144228213Y-107849707D01*
X144228210Y-107849711D01*
X144140609Y-107980814D01*
X144140602Y-107980827D01*
X144080264Y-108126498D01*
X144080261Y-108126510D01*
X144049500Y-108281153D01*
X132860505Y-108281153D01*
X132812712Y-108203667D01*
X132688656Y-108079611D01*
X132539334Y-107987509D01*
X132372797Y-107932324D01*
X132372795Y-107932323D01*
X132270010Y-107921823D01*
X130669998Y-107921823D01*
X130669980Y-107921824D01*
X130575333Y-107931493D01*
X130506640Y-107918723D01*
X130475051Y-107895816D01*
X122546819Y-99967584D01*
X122513334Y-99906261D01*
X122510500Y-99879903D01*
X122510500Y-98279995D01*
X122510499Y-98279982D01*
X122499999Y-98177203D01*
X122470176Y-98087203D01*
X122444814Y-98010665D01*
X122352712Y-97861344D01*
X122228656Y-97737288D01*
X122079335Y-97645186D01*
X121912798Y-97590001D01*
X121912796Y-97590000D01*
X121810017Y-97579500D01*
X121810010Y-97579500D01*
X120009990Y-97579500D01*
X120009982Y-97579500D01*
X119907203Y-97590000D01*
X119907202Y-97590001D01*
X119824669Y-97617349D01*
X119740667Y-97645185D01*
X119740662Y-97645187D01*
X119591342Y-97737289D01*
X119467289Y-97861342D01*
X119375187Y-98010662D01*
X119375186Y-98010665D01*
X119320001Y-98177202D01*
X119320001Y-98177203D01*
X119320000Y-98177203D01*
X119309500Y-98279982D01*
X119309500Y-98455500D01*
X119289815Y-98522539D01*
X119237011Y-98568294D01*
X119185500Y-98579500D01*
X118444500Y-98579500D01*
X118377461Y-98559815D01*
X118331706Y-98507011D01*
X118320500Y-98455500D01*
X118320500Y-98189995D01*
X118320499Y-98189982D01*
X118319193Y-98177203D01*
X118309999Y-98087202D01*
X118254814Y-97920665D01*
X118162712Y-97771344D01*
X118038656Y-97647288D01*
X117889335Y-97555186D01*
X117722798Y-97500001D01*
X117722796Y-97500000D01*
X117620017Y-97489500D01*
X117620010Y-97489500D01*
X115819990Y-97489500D01*
X115819982Y-97489500D01*
X115717203Y-97500000D01*
X115717202Y-97500001D01*
X115634669Y-97527349D01*
X115550667Y-97555185D01*
X115550662Y-97555187D01*
X115401342Y-97647289D01*
X115277289Y-97771342D01*
X115185187Y-97920662D01*
X115185186Y-97920665D01*
X115130001Y-98087202D01*
X115130001Y-98087203D01*
X115130000Y-98087203D01*
X115119500Y-98189982D01*
X115119500Y-98365500D01*
X115099815Y-98432539D01*
X115047011Y-98478294D01*
X114995500Y-98489500D01*
X114194500Y-98489500D01*
X114127461Y-98469815D01*
X114081706Y-98417011D01*
X114070500Y-98365500D01*
X114070500Y-98189995D01*
X114070499Y-98189982D01*
X114069193Y-98177203D01*
X114059999Y-98087202D01*
X114004814Y-97920665D01*
X113912712Y-97771344D01*
X113788656Y-97647288D01*
X113639335Y-97555186D01*
X113472798Y-97500001D01*
X113472796Y-97500000D01*
X113370017Y-97489500D01*
X113370010Y-97489500D01*
X111569990Y-97489500D01*
X111569982Y-97489500D01*
X111467203Y-97500000D01*
X111467202Y-97500001D01*
X111384669Y-97527349D01*
X111300667Y-97555185D01*
X111300662Y-97555187D01*
X111151342Y-97647289D01*
X111027289Y-97771342D01*
X110935187Y-97920662D01*
X110935186Y-97920665D01*
X110880001Y-98087202D01*
X110880001Y-98087203D01*
X110880000Y-98087203D01*
X110869500Y-98189982D01*
X110869500Y-98365500D01*
X110849815Y-98432539D01*
X110797011Y-98478294D01*
X110745500Y-98489500D01*
X109944500Y-98489500D01*
X109877461Y-98469815D01*
X109831706Y-98417011D01*
X109820500Y-98365500D01*
X109820500Y-98189995D01*
X109820499Y-98189982D01*
X109819193Y-98177203D01*
X109809999Y-98087202D01*
X109754814Y-97920665D01*
X109662712Y-97771344D01*
X109538656Y-97647288D01*
X109389335Y-97555186D01*
X109222798Y-97500001D01*
X109222796Y-97500000D01*
X109120017Y-97489500D01*
X109120010Y-97489500D01*
X107319990Y-97489500D01*
X107319982Y-97489500D01*
X107217203Y-97500000D01*
X107217202Y-97500001D01*
X107134669Y-97527349D01*
X107050667Y-97555185D01*
X107050662Y-97555187D01*
X106901342Y-97647289D01*
X106777289Y-97771342D01*
X106685187Y-97920662D01*
X106685186Y-97920665D01*
X106630001Y-98087202D01*
X106630001Y-98087203D01*
X106630000Y-98087203D01*
X106619500Y-98189982D01*
X106619500Y-99789902D01*
X106599815Y-99856941D01*
X106583181Y-99877583D01*
X104889481Y-101571282D01*
X104889479Y-101571285D01*
X104839361Y-101658094D01*
X104839359Y-101658096D01*
X104810425Y-101708209D01*
X104810424Y-101708210D01*
X104810423Y-101708215D01*
X104769499Y-101860943D01*
X104769499Y-101860945D01*
X104769499Y-102029046D01*
X104769500Y-102029059D01*
X104769500Y-104329903D01*
X104749815Y-104396942D01*
X104733181Y-104417584D01*
X100187584Y-108963181D01*
X100126261Y-108996666D01*
X100099903Y-108999500D01*
X99191836Y-108999500D01*
X99124797Y-108979815D01*
X99081352Y-108931796D01*
X99047814Y-108865976D01*
X98918247Y-108687641D01*
X98918243Y-108687636D01*
X98762363Y-108531756D01*
X98762358Y-108531752D01*
X98622745Y-108430318D01*
X98580079Y-108374989D01*
X98574100Y-108305375D01*
X98606705Y-108243580D01*
X98622745Y-108229682D01*
X98762358Y-108128247D01*
X98762356Y-108128247D01*
X98762365Y-108128242D01*
X98918242Y-107972365D01*
X99047815Y-107794022D01*
X99147895Y-107597606D01*
X99216015Y-107387951D01*
X99250500Y-107170222D01*
X99250500Y-106949778D01*
X99216015Y-106732049D01*
X99171323Y-106594500D01*
X99147896Y-106522396D01*
X99147895Y-106522393D01*
X99113237Y-106454375D01*
X99047815Y-106325978D01*
X99021604Y-106289901D01*
X98918247Y-106147641D01*
X98918243Y-106147636D01*
X98762363Y-105991756D01*
X98762358Y-105991752D01*
X98584025Y-105862187D01*
X98584024Y-105862186D01*
X98584022Y-105862185D01*
X98521096Y-105830122D01*
X98387606Y-105762104D01*
X98387603Y-105762103D01*
X98177952Y-105693985D01*
X98069086Y-105676742D01*
X97960222Y-105659500D01*
X97739778Y-105659500D01*
X97667201Y-105670995D01*
X97522047Y-105693985D01*
X97312396Y-105762103D01*
X97312393Y-105762104D01*
X97115974Y-105862187D01*
X96937641Y-105991752D01*
X96937636Y-105991756D01*
X96781756Y-106147636D01*
X96781752Y-106147641D01*
X96652187Y-106325974D01*
X96552104Y-106522393D01*
X96552103Y-106522396D01*
X96483985Y-106732047D01*
X96449500Y-106949778D01*
X96449500Y-107170221D01*
X96483985Y-107387952D01*
X96552103Y-107597603D01*
X96552104Y-107597606D01*
X96598627Y-107688910D01*
X96651355Y-107792394D01*
X96652187Y-107794025D01*
X96781752Y-107972358D01*
X96781756Y-107972363D01*
X96937636Y-108128243D01*
X96937641Y-108128247D01*
X97077254Y-108229682D01*
X97119920Y-108285012D01*
X97125899Y-108354625D01*
X97093293Y-108416420D01*
X97077254Y-108430318D01*
X96937641Y-108531752D01*
X96937636Y-108531756D01*
X96781756Y-108687636D01*
X96781752Y-108687641D01*
X96652187Y-108865974D01*
X96552104Y-109062393D01*
X96552103Y-109062396D01*
X96483985Y-109272047D01*
X96449500Y-109489778D01*
X96449500Y-109710221D01*
X96483985Y-109927952D01*
X96506811Y-109998203D01*
X96508806Y-110068044D01*
X96476561Y-110124202D01*
X95252181Y-111348583D01*
X95190858Y-111382068D01*
X95121166Y-111377084D01*
X95065233Y-111335212D01*
X95040816Y-111269748D01*
X95040500Y-111260902D01*
X95040500Y-107549060D01*
X95040501Y-107549047D01*
X95040501Y-107380944D01*
X95040501Y-107380943D01*
X94999577Y-107228216D01*
X94971043Y-107178793D01*
X94920524Y-107091290D01*
X94920518Y-107091282D01*
X94206818Y-106377582D01*
X94173333Y-106316259D01*
X94170499Y-106289901D01*
X94170499Y-104842129D01*
X94170498Y-104842123D01*
X94170497Y-104842116D01*
X94164091Y-104782517D01*
X94156688Y-104762669D01*
X94113797Y-104647671D01*
X94113793Y-104647664D01*
X94027547Y-104532455D01*
X94027544Y-104532452D01*
X93912335Y-104446206D01*
X93912328Y-104446202D01*
X93777482Y-104395908D01*
X93777483Y-104395908D01*
X93717883Y-104389501D01*
X93717881Y-104389500D01*
X93717873Y-104389500D01*
X93717864Y-104389500D01*
X91822129Y-104389500D01*
X91822123Y-104389501D01*
X91762516Y-104395908D01*
X91627671Y-104446202D01*
X91627664Y-104446206D01*
X91512455Y-104532452D01*
X91512452Y-104532455D01*
X91426206Y-104647664D01*
X91426202Y-104647671D01*
X91375908Y-104782517D01*
X91369501Y-104842116D01*
X91369501Y-104842123D01*
X91369500Y-104842135D01*
X91369500Y-106737870D01*
X91369501Y-106737876D01*
X91375908Y-106797483D01*
X91426202Y-106932328D01*
X91426206Y-106932335D01*
X91512452Y-107047544D01*
X91512455Y-107047547D01*
X91627664Y-107133793D01*
X91627671Y-107133797D01*
X91707580Y-107163601D01*
X91763514Y-107205472D01*
X91787931Y-107270936D01*
X91773080Y-107339209D01*
X91751929Y-107367463D01*
X91701756Y-107417636D01*
X91701752Y-107417641D01*
X91572187Y-107595974D01*
X91472104Y-107792393D01*
X91472103Y-107792396D01*
X91403985Y-108002047D01*
X91369500Y-108219778D01*
X91369500Y-108320903D01*
X91349815Y-108387942D01*
X91297011Y-108433697D01*
X91227853Y-108443641D01*
X91164297Y-108414616D01*
X91157819Y-108408584D01*
X88257590Y-105508355D01*
X88257588Y-105508352D01*
X88138717Y-105389481D01*
X88138709Y-105389475D01*
X88011594Y-105316086D01*
X88011588Y-105316083D01*
X88001787Y-105310423D01*
X87940693Y-105294053D01*
X87849057Y-105269499D01*
X87690943Y-105269499D01*
X87683347Y-105269499D01*
X87683331Y-105269500D01*
X83159499Y-105269500D01*
X83092460Y-105249815D01*
X83046705Y-105197011D01*
X83035499Y-105145500D01*
X83035499Y-104957129D01*
X83035498Y-104957123D01*
X83035497Y-104957116D01*
X83029091Y-104897517D01*
X83015763Y-104861784D01*
X82978797Y-104762671D01*
X82978793Y-104762664D01*
X82892547Y-104647455D01*
X82892544Y-104647452D01*
X82777335Y-104561206D01*
X82777328Y-104561202D01*
X82642482Y-104510908D01*
X82642483Y-104510908D01*
X82582883Y-104504501D01*
X82582881Y-104504500D01*
X82582873Y-104504500D01*
X82582864Y-104504500D01*
X80457129Y-104504500D01*
X80457123Y-104504501D01*
X80397516Y-104510908D01*
X80262671Y-104561202D01*
X80262664Y-104561206D01*
X80147455Y-104647452D01*
X80147452Y-104647455D01*
X80061206Y-104762664D01*
X80061202Y-104762671D01*
X80010908Y-104897517D01*
X80004501Y-104957116D01*
X80004501Y-104957123D01*
X80004500Y-104957135D01*
X80004500Y-106782870D01*
X80004501Y-106782876D01*
X80010908Y-106842483D01*
X80061202Y-106977328D01*
X80061206Y-106977335D01*
X80147452Y-107092544D01*
X80147455Y-107092547D01*
X80262664Y-107178793D01*
X80262673Y-107178798D01*
X80330723Y-107204178D01*
X80378632Y-107222047D01*
X80434566Y-107263917D01*
X80458984Y-107329381D01*
X80444133Y-107397654D01*
X80422982Y-107425910D01*
X80328454Y-107520438D01*
X80202120Y-107694321D01*
X80104541Y-107885829D01*
X80104540Y-107885832D01*
X80038124Y-108090240D01*
X80038124Y-108090243D01*
X80032105Y-108128247D01*
X80004500Y-108302533D01*
X80004500Y-108517467D01*
X80023214Y-108635621D01*
X80038124Y-108729756D01*
X80038124Y-108729759D01*
X80104540Y-108934167D01*
X80104541Y-108934170D01*
X80196037Y-109113739D01*
X80202120Y-109125678D01*
X80328455Y-109299563D01*
X80480437Y-109451545D01*
X80619903Y-109552873D01*
X80656802Y-109579682D01*
X80699467Y-109635012D01*
X80705446Y-109704626D01*
X80672840Y-109766421D01*
X80656802Y-109780318D01*
X80654322Y-109782120D01*
X80480437Y-109908455D01*
X80480435Y-109908457D01*
X80480434Y-109908457D01*
X80328457Y-110060434D01*
X80328457Y-110060435D01*
X80328455Y-110060437D01*
X80304817Y-110092972D01*
X80202120Y-110234321D01*
X80104541Y-110425829D01*
X80104540Y-110425832D01*
X80038124Y-110630240D01*
X80038124Y-110630243D01*
X80025671Y-110708867D01*
X80006303Y-110831153D01*
X80004500Y-110842534D01*
X80004500Y-111057465D01*
X80038124Y-111269756D01*
X80038124Y-111269759D01*
X80104540Y-111474167D01*
X80104541Y-111474170D01*
X80202120Y-111665678D01*
X80328455Y-111839563D01*
X80480437Y-111991545D01*
X80654322Y-112117880D01*
X80698226Y-112140250D01*
X80845829Y-112215458D01*
X80845832Y-112215459D01*
X80952820Y-112250221D01*
X81050245Y-112281876D01*
X81262533Y-112315500D01*
X81262534Y-112315500D01*
X81777466Y-112315500D01*
X81777467Y-112315500D01*
X81989755Y-112281876D01*
X81989758Y-112281875D01*
X81989759Y-112281875D01*
X82194167Y-112215459D01*
X82194170Y-112215458D01*
X82200594Y-112212185D01*
X82385678Y-112117880D01*
X82559563Y-111991545D01*
X82711545Y-111839563D01*
X82785911Y-111737205D01*
X82841241Y-111694539D01*
X82910422Y-111688473D01*
X83021155Y-111710500D01*
X83021158Y-111710500D01*
X83178844Y-111710500D01*
X83178845Y-111710499D01*
X83333497Y-111679737D01*
X83479179Y-111619394D01*
X83610289Y-111531789D01*
X83721789Y-111420289D01*
X83809394Y-111289179D01*
X83869737Y-111143497D01*
X83900500Y-110988842D01*
X83900500Y-110831158D01*
X83900500Y-110831155D01*
X83900499Y-110831153D01*
X83898925Y-110823241D01*
X83869737Y-110676503D01*
X83855023Y-110640979D01*
X83809397Y-110530827D01*
X83809390Y-110530814D01*
X83721789Y-110399711D01*
X83721786Y-110399707D01*
X83610292Y-110288213D01*
X83610288Y-110288210D01*
X83479185Y-110200609D01*
X83479172Y-110200602D01*
X83333501Y-110140264D01*
X83333489Y-110140261D01*
X83178845Y-110109500D01*
X83178842Y-110109500D01*
X83021158Y-110109500D01*
X83021155Y-110109500D01*
X82860528Y-110141451D01*
X82860013Y-110138865D01*
X82801551Y-110139349D01*
X82742463Y-110102062D01*
X82735183Y-110092972D01*
X82711547Y-110060440D01*
X82711542Y-110060434D01*
X82559565Y-109908457D01*
X82559559Y-109908452D01*
X82383198Y-109780318D01*
X82340532Y-109724988D01*
X82334553Y-109655375D01*
X82367159Y-109593580D01*
X82383198Y-109579682D01*
X82420097Y-109552873D01*
X82559563Y-109451545D01*
X82711545Y-109299563D01*
X82837880Y-109125678D01*
X82838716Y-109124038D01*
X82862070Y-109078204D01*
X82910044Y-109027409D01*
X82972554Y-109010500D01*
X87469903Y-109010500D01*
X87536942Y-109030185D01*
X87557584Y-109046819D01*
X91396561Y-112885796D01*
X91430046Y-112947119D01*
X91426811Y-113011794D01*
X91403985Y-113082045D01*
X91369500Y-113299778D01*
X91369500Y-113520221D01*
X91403985Y-113737952D01*
X91472103Y-113947603D01*
X91472104Y-113947606D01*
X91519088Y-114039815D01*
X91571355Y-114142394D01*
X91572187Y-114144025D01*
X91701752Y-114322358D01*
X91701756Y-114322363D01*
X91857636Y-114478243D01*
X91857641Y-114478247D01*
X91997254Y-114579682D01*
X92039920Y-114635012D01*
X92045899Y-114704625D01*
X92013293Y-114766420D01*
X91997254Y-114780318D01*
X91857641Y-114881752D01*
X91857636Y-114881756D01*
X91701756Y-115037636D01*
X91701752Y-115037641D01*
X91572187Y-115215974D01*
X91472104Y-115412393D01*
X91472103Y-115412396D01*
X91403985Y-115622047D01*
X91379315Y-115777806D01*
X91369500Y-115839778D01*
X91369500Y-116060222D01*
X91374561Y-116092173D01*
X91403985Y-116277952D01*
X91472103Y-116487603D01*
X91472104Y-116487606D01*
X91514573Y-116570954D01*
X91571355Y-116682394D01*
X91572187Y-116684025D01*
X91701752Y-116862358D01*
X91701756Y-116862363D01*
X91857636Y-117018243D01*
X91857641Y-117018247D01*
X91997254Y-117119682D01*
X92039920Y-117175012D01*
X92045899Y-117244625D01*
X92013293Y-117306420D01*
X91997254Y-117320318D01*
X91857641Y-117421752D01*
X91857636Y-117421756D01*
X91701756Y-117577636D01*
X91701752Y-117577641D01*
X91572187Y-117755974D01*
X91472104Y-117952393D01*
X91472103Y-117952396D01*
X91403985Y-118162047D01*
X91369500Y-118379778D01*
X91369500Y-118600221D01*
X91403985Y-118817952D01*
X91426811Y-118888203D01*
X91428806Y-118958044D01*
X91396561Y-119014202D01*
X90896284Y-119514481D01*
X90837584Y-119573181D01*
X90776261Y-119606666D01*
X90749903Y-119609500D01*
X82962554Y-119609500D01*
X82895515Y-119589815D01*
X82852070Y-119541796D01*
X82827881Y-119494323D01*
X82782636Y-119432049D01*
X82701545Y-119320437D01*
X82549563Y-119168455D01*
X82375678Y-119042120D01*
X82373198Y-119040318D01*
X82330532Y-118984988D01*
X82324553Y-118915375D01*
X82357159Y-118853580D01*
X82373198Y-118839682D01*
X82401381Y-118819205D01*
X82549563Y-118711545D01*
X82701545Y-118559563D01*
X82777324Y-118455261D01*
X82832650Y-118412599D01*
X82902264Y-118406620D01*
X82925088Y-118413587D01*
X83036503Y-118459737D01*
X83188644Y-118490000D01*
X83191153Y-118490499D01*
X83191156Y-118490500D01*
X83191158Y-118490500D01*
X83348844Y-118490500D01*
X83348845Y-118490499D01*
X83503497Y-118459737D01*
X83649179Y-118399394D01*
X83780289Y-118311789D01*
X83891789Y-118200289D01*
X83979394Y-118069179D01*
X84039737Y-117923497D01*
X84070500Y-117768842D01*
X84070500Y-117611158D01*
X84070500Y-117611155D01*
X84070499Y-117611153D01*
X84053538Y-117525886D01*
X84039737Y-117456503D01*
X84025345Y-117421758D01*
X83979397Y-117310827D01*
X83979390Y-117310814D01*
X83891789Y-117179711D01*
X83891786Y-117179707D01*
X83780292Y-117068213D01*
X83780288Y-117068210D01*
X83649185Y-116980609D01*
X83649172Y-116980602D01*
X83503501Y-116920264D01*
X83503489Y-116920261D01*
X83348845Y-116889500D01*
X83348842Y-116889500D01*
X83191158Y-116889500D01*
X83191155Y-116889500D01*
X83036510Y-116920261D01*
X83036498Y-116920264D01*
X82947431Y-116957157D01*
X82877962Y-116964626D01*
X82815483Y-116933350D01*
X82799661Y-116915482D01*
X82782636Y-116892049D01*
X82701545Y-116780437D01*
X82607018Y-116685910D01*
X82573533Y-116624587D01*
X82578517Y-116554895D01*
X82620389Y-116498962D01*
X82651362Y-116482049D01*
X82767331Y-116438796D01*
X82882546Y-116352546D01*
X82968796Y-116237331D01*
X83019091Y-116102483D01*
X83025500Y-116042873D01*
X83025499Y-116026764D01*
X83045180Y-115959728D01*
X83097982Y-115913970D01*
X83167140Y-115904023D01*
X83173691Y-115905145D01*
X83301155Y-115930500D01*
X83301158Y-115930500D01*
X83458844Y-115930500D01*
X83458845Y-115930499D01*
X83613497Y-115899737D01*
X83759179Y-115839394D01*
X83890289Y-115751789D01*
X84001789Y-115640289D01*
X84089394Y-115509179D01*
X84149737Y-115363497D01*
X84180500Y-115208842D01*
X84180500Y-115051158D01*
X84180500Y-115051155D01*
X84180499Y-115051153D01*
X84171906Y-115007952D01*
X84149737Y-114896503D01*
X84149653Y-114896301D01*
X84089397Y-114750827D01*
X84089390Y-114750814D01*
X84001789Y-114619711D01*
X84001786Y-114619707D01*
X83890292Y-114508213D01*
X83890288Y-114508210D01*
X83759185Y-114420609D01*
X83759172Y-114420602D01*
X83613501Y-114360264D01*
X83613489Y-114360261D01*
X83458845Y-114329500D01*
X83458842Y-114329500D01*
X83301158Y-114329500D01*
X83301153Y-114329500D01*
X83173690Y-114354854D01*
X83104098Y-114348627D01*
X83048921Y-114305764D01*
X83025677Y-114239874D01*
X83025499Y-114233237D01*
X83025499Y-114217129D01*
X83025498Y-114217123D01*
X83025497Y-114217116D01*
X83019091Y-114157517D01*
X83013451Y-114142396D01*
X82968797Y-114022671D01*
X82968793Y-114022664D01*
X82882547Y-113907455D01*
X82882544Y-113907452D01*
X82767335Y-113821206D01*
X82767328Y-113821202D01*
X82632482Y-113770908D01*
X82632483Y-113770908D01*
X82572883Y-113764501D01*
X82572881Y-113764500D01*
X82572873Y-113764500D01*
X82572864Y-113764500D01*
X80447129Y-113764500D01*
X80447123Y-113764501D01*
X80387516Y-113770908D01*
X80252671Y-113821202D01*
X80252664Y-113821206D01*
X80137455Y-113907452D01*
X80137452Y-113907455D01*
X80051206Y-114022664D01*
X80051202Y-114022671D01*
X80000908Y-114157517D01*
X79994501Y-114217116D01*
X79994501Y-114217123D01*
X79994500Y-114217135D01*
X79994500Y-116042870D01*
X79994501Y-116042876D01*
X80000908Y-116102483D01*
X80051202Y-116237328D01*
X80051206Y-116237335D01*
X80137452Y-116352544D01*
X80137455Y-116352547D01*
X80252664Y-116438793D01*
X80252673Y-116438798D01*
X80320723Y-116464178D01*
X80368632Y-116482047D01*
X80424566Y-116523917D01*
X80448984Y-116589381D01*
X80434133Y-116657654D01*
X80412982Y-116685910D01*
X80318454Y-116780438D01*
X80192120Y-116954321D01*
X80094541Y-117145829D01*
X80094540Y-117145832D01*
X80028124Y-117350240D01*
X80028124Y-117350243D01*
X80028124Y-117350245D01*
X80000305Y-117525886D01*
X79994500Y-117562534D01*
X79994500Y-117777465D01*
X80028124Y-117989756D01*
X80028124Y-117989759D01*
X80094540Y-118194167D01*
X80094541Y-118194170D01*
X80171328Y-118344871D01*
X80192120Y-118385678D01*
X80318455Y-118559563D01*
X80470437Y-118711545D01*
X80538381Y-118760909D01*
X80646802Y-118839682D01*
X80689467Y-118895012D01*
X80695446Y-118964626D01*
X80662840Y-119026421D01*
X80646802Y-119040318D01*
X80644322Y-119042120D01*
X80470437Y-119168455D01*
X80470435Y-119168457D01*
X80470434Y-119168457D01*
X80318457Y-119320434D01*
X80318457Y-119320435D01*
X80318455Y-119320437D01*
X80296539Y-119350602D01*
X80192120Y-119494321D01*
X80094541Y-119685829D01*
X80094540Y-119685832D01*
X80028124Y-119890240D01*
X80028124Y-119890243D01*
X79994500Y-120102534D01*
X79994500Y-120317465D01*
X80028124Y-120529756D01*
X80028124Y-120529759D01*
X80094540Y-120734167D01*
X80094541Y-120734170D01*
X80162713Y-120867964D01*
X80192120Y-120925678D01*
X80318455Y-121099563D01*
X80470437Y-121251545D01*
X80644322Y-121377880D01*
X80738251Y-121425739D01*
X80835829Y-121475458D01*
X80835832Y-121475459D01*
X81026494Y-121537408D01*
X81040245Y-121541876D01*
X81252533Y-121575500D01*
X81252534Y-121575500D01*
X81767466Y-121575500D01*
X81767467Y-121575500D01*
X81979755Y-121541876D01*
X81979758Y-121541875D01*
X81979759Y-121541875D01*
X82184167Y-121475459D01*
X82184170Y-121475458D01*
X82201755Y-121466498D01*
X82375678Y-121377880D01*
X82549563Y-121251545D01*
X82701545Y-121099563D01*
X82827880Y-120925678D01*
X82832180Y-120917239D01*
X82852070Y-120878204D01*
X82900044Y-120827409D01*
X82962554Y-120810500D01*
X90963331Y-120810500D01*
X90963347Y-120810501D01*
X90970943Y-120810501D01*
X91129054Y-120810501D01*
X91129057Y-120810501D01*
X91213989Y-120787743D01*
X91283837Y-120789406D01*
X91341700Y-120828568D01*
X91369204Y-120892796D01*
X91369699Y-120917239D01*
X91369500Y-120919769D01*
X91369500Y-120919778D01*
X91369500Y-121140222D01*
X91377338Y-121189711D01*
X91403985Y-121357952D01*
X91472103Y-121567603D01*
X91472104Y-121567606D01*
X91519999Y-121661603D01*
X91571355Y-121762394D01*
X91572187Y-121764025D01*
X91701752Y-121942358D01*
X91701756Y-121942363D01*
X91857636Y-122098243D01*
X91857641Y-122098247D01*
X91997254Y-122199682D01*
X92039920Y-122255012D01*
X92045899Y-122324625D01*
X92013293Y-122386420D01*
X91997254Y-122400318D01*
X91857641Y-122501752D01*
X91857636Y-122501756D01*
X91701756Y-122657636D01*
X91701752Y-122657641D01*
X91572187Y-122835974D01*
X91472104Y-123032393D01*
X91472103Y-123032396D01*
X91403985Y-123242047D01*
X91369500Y-123459778D01*
X91369500Y-123680221D01*
X91403985Y-123897952D01*
X91472103Y-124107603D01*
X91472104Y-124107606D01*
X91539853Y-124240568D01*
X91556890Y-124274005D01*
X91572187Y-124304025D01*
X91701752Y-124482358D01*
X91701756Y-124482363D01*
X91857636Y-124638243D01*
X91857641Y-124638247D01*
X91999504Y-124741315D01*
X92035978Y-124767815D01*
X92164375Y-124833237D01*
X92232393Y-124867895D01*
X92232396Y-124867896D01*
X92337221Y-124901955D01*
X92442049Y-124936015D01*
X92601118Y-124961209D01*
X92664253Y-124991138D01*
X92701184Y-125050450D01*
X92700186Y-125120312D01*
X92669401Y-125171363D01*
X91637584Y-126203181D01*
X91576261Y-126236666D01*
X91549903Y-126239500D01*
X84400098Y-126239500D01*
X84333059Y-126219815D01*
X84312417Y-126203181D01*
X83101818Y-124992582D01*
X83068333Y-124931259D01*
X83065499Y-124904901D01*
X83065499Y-123377129D01*
X83065498Y-123377123D01*
X83065497Y-123377116D01*
X83059091Y-123317517D01*
X83032597Y-123246484D01*
X83008797Y-123182671D01*
X83008793Y-123182664D01*
X82922547Y-123067455D01*
X82922544Y-123067452D01*
X82807335Y-122981206D01*
X82807328Y-122981202D01*
X82672482Y-122930908D01*
X82672483Y-122930908D01*
X82612883Y-122924501D01*
X82612881Y-122924500D01*
X82612873Y-122924500D01*
X82612864Y-122924500D01*
X80487129Y-122924500D01*
X80487123Y-122924501D01*
X80427516Y-122930908D01*
X80292671Y-122981202D01*
X80292664Y-122981206D01*
X80177455Y-123067452D01*
X80177452Y-123067455D01*
X80091206Y-123182664D01*
X80091202Y-123182671D01*
X80040908Y-123317517D01*
X80034501Y-123377116D01*
X80034501Y-123377123D01*
X80034500Y-123377135D01*
X80034500Y-125202870D01*
X80034501Y-125202876D01*
X80040908Y-125262483D01*
X80091202Y-125397328D01*
X80091206Y-125397335D01*
X80177452Y-125512544D01*
X80177455Y-125512547D01*
X80292664Y-125598793D01*
X80292673Y-125598798D01*
X80360723Y-125624178D01*
X80408632Y-125642047D01*
X80435755Y-125662350D01*
X80463220Y-125682153D01*
X80463641Y-125683225D01*
X80464566Y-125683917D01*
X80476405Y-125715658D01*
X80488806Y-125747169D01*
X80488580Y-125748300D01*
X80488984Y-125749381D01*
X80481785Y-125782473D01*
X80475179Y-125815697D01*
X80474297Y-125816896D01*
X80474133Y-125817654D01*
X80454537Y-125844326D01*
X80453741Y-125845150D01*
X80358455Y-125940437D01*
X80348229Y-125954511D01*
X80342222Y-125960738D01*
X80319068Y-125973924D01*
X80297970Y-125990193D01*
X80282666Y-125994656D01*
X80281509Y-125995316D01*
X80280577Y-125995266D01*
X80277177Y-125996258D01*
X80156508Y-126020261D01*
X80156498Y-126020264D01*
X80010827Y-126080602D01*
X80010814Y-126080609D01*
X79879711Y-126168210D01*
X79879707Y-126168213D01*
X79768213Y-126279707D01*
X79768210Y-126279711D01*
X79680609Y-126410814D01*
X79680602Y-126410827D01*
X79620264Y-126556498D01*
X79620261Y-126556510D01*
X79589500Y-126711153D01*
X77730500Y-126711153D01*
X77730500Y-92094500D01*
X77750185Y-92027461D01*
X77802989Y-91981706D01*
X77854500Y-91970500D01*
X153655500Y-91970500D01*
X153722539Y-91990185D01*
G37*
%TD.AperFunction*%
%TA.AperFunction,NonConductor*%
G36*
X87536942Y-106490185D02*
G01*
X87557584Y-106506819D01*
X91396561Y-110345796D01*
X91430046Y-110407119D01*
X91426811Y-110471794D01*
X91403985Y-110542045D01*
X91369500Y-110759778D01*
X91369500Y-110860903D01*
X91349815Y-110927942D01*
X91297011Y-110973697D01*
X91227853Y-110983641D01*
X91164297Y-110954616D01*
X91157819Y-110948584D01*
X88257590Y-108048355D01*
X88257588Y-108048352D01*
X88138717Y-107929481D01*
X88138716Y-107929480D01*
X88051904Y-107879360D01*
X88051904Y-107879359D01*
X88051900Y-107879358D01*
X88001785Y-107850423D01*
X87849057Y-107809499D01*
X87690943Y-107809499D01*
X87683347Y-107809499D01*
X87683331Y-107809500D01*
X82972554Y-107809500D01*
X82905515Y-107789815D01*
X82862070Y-107741796D01*
X82837881Y-107694323D01*
X82818902Y-107668201D01*
X82711545Y-107520437D01*
X82617018Y-107425910D01*
X82583533Y-107364587D01*
X82588517Y-107294895D01*
X82630389Y-107238962D01*
X82661362Y-107222049D01*
X82777331Y-107178796D01*
X82892546Y-107092546D01*
X82978796Y-106977331D01*
X83029091Y-106842483D01*
X83035500Y-106782873D01*
X83035500Y-106594500D01*
X83055185Y-106527461D01*
X83107989Y-106481706D01*
X83159500Y-106470500D01*
X87469903Y-106470500D01*
X87536942Y-106490185D01*
G37*
%TD.AperFunction*%
%TA.AperFunction,NonConductor*%
G36*
X94018784Y-114210575D02*
G01*
X94023748Y-114210664D01*
X94055585Y-114225896D01*
X94060815Y-114229390D01*
X94060821Y-114229394D01*
X94060823Y-114229395D01*
X94060827Y-114229397D01*
X94178681Y-114278213D01*
X94206503Y-114289737D01*
X94325952Y-114313497D01*
X94361153Y-114320499D01*
X94361156Y-114320500D01*
X94361158Y-114320500D01*
X94518844Y-114320500D01*
X94518845Y-114320499D01*
X94673497Y-114289737D01*
X94764398Y-114252085D01*
X94798048Y-114238147D01*
X94867517Y-114230678D01*
X94929996Y-114261953D01*
X94965648Y-114322042D01*
X94969500Y-114352708D01*
X94969500Y-117000902D01*
X94949815Y-117067941D01*
X94897011Y-117113696D01*
X94827853Y-117123640D01*
X94764297Y-117094615D01*
X94757819Y-117088583D01*
X94143438Y-116474203D01*
X94109953Y-116412880D01*
X94113187Y-116348205D01*
X94136015Y-116277951D01*
X94170500Y-116060222D01*
X94170500Y-115839778D01*
X94136015Y-115622049D01*
X94082963Y-115458769D01*
X94067896Y-115412396D01*
X94067895Y-115412393D01*
X94028404Y-115334889D01*
X93967815Y-115215978D01*
X93951260Y-115193192D01*
X93838247Y-115037641D01*
X93838243Y-115037636D01*
X93682363Y-114881756D01*
X93682358Y-114881752D01*
X93542745Y-114780318D01*
X93500079Y-114724989D01*
X93494100Y-114655375D01*
X93526705Y-114593580D01*
X93542745Y-114579682D01*
X93682358Y-114478247D01*
X93682356Y-114478247D01*
X93682365Y-114478242D01*
X93838242Y-114322365D01*
X93886376Y-114256113D01*
X93891598Y-114252085D01*
X93894446Y-114246135D01*
X93918922Y-114231015D01*
X93941705Y-114213447D01*
X93948277Y-114212882D01*
X93953889Y-114209416D01*
X93982648Y-114209929D01*
X94011318Y-114207467D01*
X94018784Y-114210575D01*
G37*
%TD.AperFunction*%
%TA.AperFunction,NonConductor*%
G36*
X93898834Y-119444287D02*
G01*
X93954767Y-119486159D01*
X93979184Y-119551623D01*
X93979500Y-119560469D01*
X93979500Y-119959531D01*
X93959815Y-120026570D01*
X93907011Y-120072325D01*
X93837853Y-120082269D01*
X93774297Y-120053244D01*
X93767819Y-120047212D01*
X93682363Y-119961756D01*
X93682358Y-119961752D01*
X93542745Y-119860318D01*
X93500079Y-119804989D01*
X93494100Y-119735375D01*
X93526705Y-119673580D01*
X93542745Y-119659682D01*
X93682358Y-119558247D01*
X93682356Y-119558247D01*
X93682365Y-119558242D01*
X93767819Y-119472788D01*
X93829142Y-119439303D01*
X93898834Y-119444287D01*
G37*
%TD.AperFunction*%
%TA.AperFunction,NonConductor*%
G36*
X99235618Y-115357423D02*
G01*
X99251860Y-115371095D01*
X99843181Y-115962416D01*
X99876666Y-116023739D01*
X99879500Y-116050097D01*
X99879500Y-121120234D01*
X99859815Y-121187273D01*
X99858602Y-121189125D01*
X99770609Y-121320814D01*
X99770602Y-121320827D01*
X99710264Y-121466498D01*
X99710261Y-121466508D01*
X99683769Y-121599692D01*
X99651384Y-121661603D01*
X99590668Y-121696177D01*
X99562152Y-121699500D01*
X99191836Y-121699500D01*
X99124797Y-121679815D01*
X99081352Y-121631796D01*
X99047814Y-121565976D01*
X98918247Y-121387641D01*
X98918243Y-121387636D01*
X98762363Y-121231756D01*
X98762358Y-121231752D01*
X98622745Y-121130318D01*
X98580079Y-121074989D01*
X98574100Y-121005375D01*
X98606705Y-120943580D01*
X98622745Y-120929682D01*
X98762358Y-120828247D01*
X98762356Y-120828247D01*
X98762365Y-120828242D01*
X98918242Y-120672365D01*
X99047815Y-120494022D01*
X99147895Y-120297606D01*
X99216015Y-120087951D01*
X99222468Y-120047212D01*
X99250500Y-119870221D01*
X99250500Y-119649778D01*
X99216015Y-119432049D01*
X99147895Y-119222394D01*
X99147895Y-119222393D01*
X99109742Y-119147516D01*
X99047815Y-119025978D01*
X99018034Y-118984988D01*
X98918247Y-118847641D01*
X98918243Y-118847636D01*
X98762363Y-118691756D01*
X98762358Y-118691752D01*
X98622745Y-118590318D01*
X98580079Y-118534989D01*
X98574100Y-118465375D01*
X98606705Y-118403580D01*
X98622745Y-118389682D01*
X98762358Y-118288247D01*
X98762356Y-118288247D01*
X98762365Y-118288242D01*
X98918242Y-118132365D01*
X99047815Y-117954022D01*
X99147895Y-117757606D01*
X99216015Y-117547951D01*
X99228405Y-117469728D01*
X99250500Y-117330221D01*
X99250500Y-117109778D01*
X99233953Y-117005304D01*
X99216015Y-116892049D01*
X99179750Y-116780434D01*
X99147896Y-116682396D01*
X99147895Y-116682393D01*
X99082930Y-116554895D01*
X99047815Y-116485978D01*
X99013537Y-116438798D01*
X98918247Y-116307641D01*
X98918243Y-116307636D01*
X98762363Y-116151756D01*
X98762358Y-116151752D01*
X98622745Y-116050318D01*
X98580079Y-115994989D01*
X98574100Y-115925375D01*
X98606705Y-115863580D01*
X98622745Y-115849682D01*
X98762358Y-115748247D01*
X98762356Y-115748247D01*
X98762365Y-115748242D01*
X98918242Y-115592365D01*
X99047815Y-115414022D01*
X99053692Y-115402485D01*
X99101662Y-115351689D01*
X99169482Y-115334889D01*
X99235618Y-115357423D01*
G37*
%TD.AperFunction*%
%TA.AperFunction,NonConductor*%
G36*
X93898834Y-121984287D02*
G01*
X93954767Y-122026159D01*
X93979184Y-122091623D01*
X93979500Y-122100469D01*
X93979500Y-122499531D01*
X93959815Y-122566570D01*
X93907011Y-122612325D01*
X93837853Y-122622269D01*
X93774297Y-122593244D01*
X93767819Y-122587212D01*
X93682363Y-122501756D01*
X93682358Y-122501752D01*
X93542745Y-122400318D01*
X93500079Y-122344989D01*
X93494100Y-122275375D01*
X93526705Y-122213580D01*
X93542745Y-122199682D01*
X93682358Y-122098247D01*
X93682356Y-122098247D01*
X93682365Y-122098242D01*
X93767819Y-122012788D01*
X93829142Y-121979303D01*
X93898834Y-121984287D01*
G37*
%TD.AperFunction*%
%TA.AperFunction,NonConductor*%
G36*
X94888834Y-124752914D02*
G01*
X94944767Y-124794786D01*
X94969184Y-124860250D01*
X94969500Y-124869096D01*
X94969500Y-125435500D01*
X94949815Y-125502539D01*
X94897011Y-125548294D01*
X94845500Y-125559500D01*
X94771155Y-125559500D01*
X94616510Y-125590261D01*
X94616498Y-125590264D01*
X94470827Y-125650602D01*
X94470814Y-125650609D01*
X94339125Y-125738602D01*
X94321078Y-125744252D01*
X94305169Y-125754477D01*
X94274207Y-125758928D01*
X94272447Y-125759480D01*
X94270234Y-125759500D01*
X94210098Y-125759500D01*
X94143059Y-125739815D01*
X94122417Y-125723181D01*
X94056916Y-125657680D01*
X94023431Y-125596357D01*
X94028415Y-125526665D01*
X94056916Y-125482318D01*
X94449753Y-125089481D01*
X94757820Y-124781414D01*
X94819142Y-124747930D01*
X94888834Y-124752914D01*
G37*
%TD.AperFunction*%
%TA.AperFunction,NonConductor*%
G36*
X93163332Y-126478415D02*
G01*
X93207680Y-126506916D01*
X93541284Y-126840520D01*
X93541286Y-126840521D01*
X93541290Y-126840524D01*
X93678209Y-126919573D01*
X93678216Y-126919577D01*
X93830943Y-126960501D01*
X93830945Y-126960501D01*
X93996654Y-126960501D01*
X93996670Y-126960500D01*
X94270234Y-126960500D01*
X94337273Y-126980185D01*
X94339125Y-126981398D01*
X94470814Y-127069390D01*
X94470827Y-127069397D01*
X94616498Y-127129735D01*
X94616503Y-127129737D01*
X94735203Y-127153348D01*
X94771153Y-127160499D01*
X94771156Y-127160500D01*
X94845500Y-127160500D01*
X94912539Y-127180185D01*
X94958294Y-127232989D01*
X94969500Y-127284500D01*
X94969500Y-127617149D01*
X94949815Y-127684188D01*
X94933181Y-127704830D01*
X88674830Y-133963181D01*
X88613507Y-133996666D01*
X88587149Y-133999500D01*
X86987343Y-133999500D01*
X86920304Y-133979815D01*
X86899662Y-133963181D01*
X82983659Y-130047178D01*
X82950174Y-129985855D01*
X82955158Y-129916163D01*
X82960859Y-129903195D01*
X82965458Y-129894170D01*
X83031876Y-129689755D01*
X83065500Y-129477467D01*
X83065500Y-129262533D01*
X83031876Y-129050245D01*
X83031875Y-129050241D01*
X83031875Y-129050240D01*
X82965459Y-128845832D01*
X82965458Y-128845829D01*
X82867879Y-128654321D01*
X82741545Y-128480437D01*
X82589563Y-128328455D01*
X82531078Y-128285963D01*
X82413198Y-128200318D01*
X82370532Y-128144988D01*
X82364553Y-128075375D01*
X82397159Y-128013580D01*
X82413198Y-127999682D01*
X82441381Y-127979205D01*
X82589563Y-127871545D01*
X82741545Y-127719563D01*
X82867880Y-127545678D01*
X82965458Y-127354170D01*
X82976390Y-127320524D01*
X83031875Y-127149759D01*
X83031875Y-127149758D01*
X83031876Y-127149755D01*
X83065500Y-126937467D01*
X83065500Y-126937458D01*
X83066086Y-126933759D01*
X83096015Y-126870625D01*
X83155326Y-126833693D01*
X83225189Y-126834691D01*
X83276240Y-126865476D01*
X83731284Y-127320520D01*
X83731286Y-127320521D01*
X83731290Y-127320524D01*
X83868209Y-127399573D01*
X83868216Y-127399577D01*
X84020943Y-127440501D01*
X84020945Y-127440501D01*
X84186654Y-127440501D01*
X84186670Y-127440500D01*
X91659973Y-127440500D01*
X91692066Y-127444725D01*
X91701990Y-127447384D01*
X91750943Y-127460501D01*
X91750945Y-127460501D01*
X91909054Y-127460501D01*
X91909057Y-127460501D01*
X92061785Y-127419577D01*
X92198716Y-127340519D01*
X93032318Y-126506915D01*
X93093641Y-126473431D01*
X93163332Y-126478415D01*
G37*
%TD.AperFunction*%
%TA.AperFunction,NonConductor*%
G36*
X99058834Y-143532914D02*
G01*
X99114767Y-143574786D01*
X99139184Y-143640250D01*
X99139500Y-143649096D01*
X99139500Y-146451742D01*
X99119815Y-146518781D01*
X99071795Y-146562227D01*
X98978461Y-146609783D01*
X98795759Y-146742525D01*
X98729952Y-146766005D01*
X98661898Y-146750180D01*
X98613203Y-146700074D01*
X98606690Y-146685538D01*
X98596296Y-146657669D01*
X98596293Y-146657664D01*
X98510047Y-146542455D01*
X98510044Y-146542452D01*
X98394835Y-146456206D01*
X98394828Y-146456202D01*
X98259982Y-146405908D01*
X98259983Y-146405908D01*
X98200383Y-146399501D01*
X98200381Y-146399500D01*
X98200373Y-146399500D01*
X98200365Y-146399500D01*
X96389095Y-146399500D01*
X96322056Y-146379815D01*
X96276301Y-146327011D01*
X96266357Y-146257853D01*
X96295382Y-146194297D01*
X96301399Y-146187834D01*
X98927821Y-143561413D01*
X98989142Y-143527930D01*
X99058834Y-143532914D01*
G37*
%TD.AperFunction*%
%TA.AperFunction,NonConductor*%
G36*
X95666334Y-146925414D02*
G01*
X95722267Y-146967286D01*
X95746684Y-147032750D01*
X95747000Y-147041596D01*
X95747000Y-148452402D01*
X95727315Y-148519441D01*
X95710681Y-148540083D01*
X94487584Y-149763181D01*
X94426261Y-149796666D01*
X94399903Y-149799500D01*
X88900097Y-149799500D01*
X88833058Y-149779815D01*
X88812416Y-149763181D01*
X88431707Y-149382472D01*
X88398222Y-149321149D01*
X88395388Y-149294791D01*
X88395388Y-148712162D01*
X88415073Y-148645123D01*
X88467877Y-148599368D01*
X88493440Y-148590907D01*
X88497676Y-148589999D01*
X88497685Y-148589999D01*
X88664222Y-148534814D01*
X88813544Y-148442712D01*
X88937600Y-148318656D01*
X89029702Y-148169334D01*
X89044314Y-148125237D01*
X89084083Y-148067796D01*
X89148599Y-148040972D01*
X89217375Y-148053286D01*
X89262336Y-148091358D01*
X89302920Y-148147217D01*
X89447674Y-148291971D01*
X89602637Y-148404556D01*
X89613278Y-148412287D01*
X89729495Y-148471503D01*
X89795664Y-148505218D01*
X89795666Y-148505218D01*
X89795669Y-148505220D01*
X89839437Y-148519441D01*
X89990353Y-148568477D01*
X90091445Y-148584488D01*
X90192536Y-148600500D01*
X90192537Y-148600500D01*
X90397239Y-148600500D01*
X90397240Y-148600500D01*
X90599422Y-148568477D01*
X90794107Y-148505220D01*
X90976498Y-148412287D01*
X91105370Y-148318657D01*
X91142101Y-148291971D01*
X91142103Y-148291968D01*
X91142107Y-148291966D01*
X91286854Y-148147219D01*
X91286856Y-148147215D01*
X91286859Y-148147213D01*
X91407172Y-147981614D01*
X91407171Y-147981614D01*
X91407175Y-147981610D01*
X91414005Y-147968204D01*
X91461979Y-147917409D01*
X91524490Y-147900500D01*
X94253331Y-147900500D01*
X94253347Y-147900501D01*
X94260943Y-147900501D01*
X94419054Y-147900501D01*
X94419057Y-147900501D01*
X94571785Y-147859577D01*
X94621904Y-147830639D01*
X94708716Y-147780520D01*
X94820520Y-147668716D01*
X94820520Y-147668714D01*
X94830728Y-147658507D01*
X94830730Y-147658504D01*
X95535319Y-146953915D01*
X95596642Y-146920430D01*
X95666334Y-146925414D01*
G37*
%TD.AperFunction*%
M02*
